%TF.GenerationSoftware,KiCad,Pcbnew,(5.1.0-rc1)*%
%TF.CreationDate,2020-07-29T19:39:04+03:00*%
%TF.ProjectId,home_pwm,686f6d65-5f70-4776-9d2e-6b696361645f,rev?*%
%TF.SameCoordinates,Original*%
%TF.FileFunction,Copper,L1,Top*%
%TF.FilePolarity,Positive*%
%FSLAX46Y46*%
G04 Gerber Fmt 4.6, Leading zero omitted, Abs format (unit mm)*
G04 Created by KiCad (PCBNEW (5.1.0-rc1)) date 2020-07-29 19:39:04*
%MOMM*%
%LPD*%
G04 APERTURE LIST*
%ADD10C,2.000000*%
%ADD11C,6.200000*%
%ADD12R,1.100000X2.300000*%
%ADD13C,1.000000*%
%ADD14C,1.000000*%
%ADD15O,1.000000X1.000000*%
%ADD16O,9.000000X9.000000*%
%ADD17C,0.100000*%
%ADD18C,1.800000*%
%ADD19R,1.727200X1.727200*%
%ADD20O,1.727200X1.727200*%
%ADD21O,3.000000X4.500000*%
%ADD22C,0.800000*%
%ADD23C,1.500000*%
%ADD24C,3.000000*%
%ADD25C,0.300000*%
%ADD26C,0.400000*%
%ADD27C,0.600000*%
%ADD28C,2.000000*%
%ADD29C,0.250000*%
G04 APERTURE END LIST*
D10*
X77500000Y-85000000D03*
D11*
X130000000Y-142500000D03*
X70000000Y-142500000D03*
D10*
X119500000Y-102000000D03*
X119500000Y-97500000D03*
X126000000Y-102000000D03*
X126000000Y-97500000D03*
X119500000Y-93000000D03*
X119500000Y-88500000D03*
X126000000Y-93000000D03*
X126000000Y-88500000D03*
D12*
X89700000Y-109750000D03*
X88000000Y-109750000D03*
X86300000Y-109750000D03*
X86300000Y-104250000D03*
X88000000Y-104250000D03*
X89700000Y-104250000D03*
D13*
X67737258Y-80237258D03*
D14*
X67737258Y-80237258D02*
X67737258Y-80237258D01*
D15*
X70000000Y-79300000D03*
D13*
X72262742Y-80237258D03*
D14*
X72262742Y-80237258D02*
X72262742Y-80237258D01*
D15*
X73200000Y-82500000D03*
D13*
X72262742Y-84762742D03*
D14*
X72262742Y-84762742D02*
X72262742Y-84762742D01*
D15*
X70000000Y-85700000D03*
D13*
X67737258Y-84762742D03*
D14*
X67737258Y-84762742D02*
X67737258Y-84762742D01*
D15*
X66800000Y-82500000D03*
D16*
X70000000Y-82500000D03*
D13*
X127737258Y-80237258D03*
D14*
X127737258Y-80237258D02*
X127737258Y-80237258D01*
D15*
X130000000Y-79300000D03*
D13*
X132262742Y-80237258D03*
D14*
X132262742Y-80237258D02*
X132262742Y-80237258D01*
D15*
X133200000Y-82500000D03*
D13*
X132262742Y-84762742D03*
D14*
X132262742Y-84762742D02*
X132262742Y-84762742D01*
D15*
X130000000Y-85700000D03*
D13*
X127737258Y-84762742D03*
D14*
X127737258Y-84762742D02*
X127737258Y-84762742D01*
D15*
X126800000Y-82500000D03*
D16*
X130000000Y-82500000D03*
D17*
G36*
X82954108Y-82102167D02*
G01*
X82997791Y-82108647D01*
X83040628Y-82119377D01*
X83082208Y-82134254D01*
X83122129Y-82153135D01*
X83160007Y-82175839D01*
X83195477Y-82202145D01*
X83228198Y-82231802D01*
X83257855Y-82264523D01*
X83284161Y-82299993D01*
X83306865Y-82337871D01*
X83325746Y-82377792D01*
X83340623Y-82419372D01*
X83351353Y-82462209D01*
X83357833Y-82505892D01*
X83360000Y-82550000D01*
X83360000Y-83450000D01*
X83357833Y-83494108D01*
X83351353Y-83537791D01*
X83340623Y-83580628D01*
X83325746Y-83622208D01*
X83306865Y-83662129D01*
X83284161Y-83700007D01*
X83257855Y-83735477D01*
X83228198Y-83768198D01*
X83195477Y-83797855D01*
X83160007Y-83824161D01*
X83122129Y-83846865D01*
X83082208Y-83865746D01*
X83040628Y-83880623D01*
X82997791Y-83891353D01*
X82954108Y-83897833D01*
X82910000Y-83900000D01*
X82010000Y-83900000D01*
X81965892Y-83897833D01*
X81922209Y-83891353D01*
X81879372Y-83880623D01*
X81837792Y-83865746D01*
X81797871Y-83846865D01*
X81759993Y-83824161D01*
X81724523Y-83797855D01*
X81691802Y-83768198D01*
X81662145Y-83735477D01*
X81635839Y-83700007D01*
X81613135Y-83662129D01*
X81594254Y-83622208D01*
X81579377Y-83580628D01*
X81568647Y-83537791D01*
X81562167Y-83494108D01*
X81560000Y-83450000D01*
X81560000Y-82550000D01*
X81562167Y-82505892D01*
X81568647Y-82462209D01*
X81579377Y-82419372D01*
X81594254Y-82377792D01*
X81613135Y-82337871D01*
X81635839Y-82299993D01*
X81662145Y-82264523D01*
X81691802Y-82231802D01*
X81724523Y-82202145D01*
X81759993Y-82175839D01*
X81797871Y-82153135D01*
X81837792Y-82134254D01*
X81879372Y-82119377D01*
X81922209Y-82108647D01*
X81965892Y-82102167D01*
X82010000Y-82100000D01*
X82910000Y-82100000D01*
X82954108Y-82102167D01*
X82954108Y-82102167D01*
G37*
D18*
X82460000Y-83000000D03*
X85000000Y-83000000D03*
D19*
X72500000Y-97500000D03*
D20*
X75040000Y-97500000D03*
X72500000Y-100040000D03*
X75040000Y-100040000D03*
X72500000Y-102580000D03*
X75040000Y-102580000D03*
D21*
X119050000Y-140500000D03*
X111430000Y-140500000D03*
X103810000Y-140500000D03*
X96190000Y-140500000D03*
X88570000Y-140500000D03*
X80950000Y-140500000D03*
D22*
X104000000Y-100500000D03*
X104000000Y-95500000D03*
X101500000Y-98000000D03*
X97500000Y-96500000D03*
X107500000Y-98000000D03*
X106000000Y-89000000D03*
X116000000Y-93000000D03*
X97500000Y-89500000D03*
X101000000Y-92500000D03*
X95000000Y-94000000D03*
X90500000Y-89500000D03*
X107500000Y-104000000D03*
X109000000Y-104000000D03*
X106000000Y-104000000D03*
X106500000Y-81000000D03*
X91000000Y-81500000D03*
X92500000Y-81500000D03*
X89500000Y-81500000D03*
X91000000Y-78500000D03*
X89500000Y-78500000D03*
X92500000Y-78500000D03*
X99500000Y-81500000D03*
X99500000Y-78000000D03*
X105000000Y-78000000D03*
X105000000Y-85500000D03*
X110000000Y-89000000D03*
X110000000Y-95000000D03*
X110000000Y-100500000D03*
X100000000Y-103500000D03*
X100000000Y-108500000D03*
X113500000Y-101000000D03*
X115500000Y-101000000D03*
D23*
X108000000Y-116000000D03*
X108000000Y-114500000D03*
X109500000Y-116000000D03*
D10*
X133000000Y-107000000D03*
D23*
X112000000Y-116000000D03*
X109000000Y-118000000D03*
X114000000Y-116000000D03*
D24*
X129500000Y-103500000D03*
D22*
X89500000Y-85000000D03*
X91500000Y-85000000D03*
X76000000Y-125000000D03*
X79000000Y-125000000D03*
X79000000Y-123000000D03*
X76000000Y-123000000D03*
X79000000Y-121000000D03*
X79000000Y-119000000D03*
X80000000Y-109000000D03*
X82000000Y-108000000D03*
X82000000Y-105000000D03*
X80000000Y-105000000D03*
X78000000Y-106000000D03*
X76000000Y-109000000D03*
X71000000Y-109000000D03*
X73000000Y-107000000D03*
X75000000Y-105000000D03*
X71000000Y-105000000D03*
X74000000Y-123000000D03*
X74000000Y-125000000D03*
X72000000Y-125000000D03*
X72000000Y-123000000D03*
X70000000Y-123000000D03*
X70000000Y-125000000D03*
X105000000Y-146000000D03*
X105000000Y-144000000D03*
X102000000Y-144000000D03*
X102000000Y-146000000D03*
X100000000Y-146000000D03*
X100000000Y-144000000D03*
X98000000Y-144000000D03*
X98000000Y-146000000D03*
X100000000Y-142000000D03*
X100000000Y-140000000D03*
X100000000Y-138000000D03*
X129000000Y-146500000D03*
D24*
X129500000Y-107000000D03*
D10*
X133000000Y-100500000D03*
X133000000Y-103500000D03*
D22*
X93500000Y-96500000D03*
X91500000Y-97500000D03*
X89500000Y-99500000D03*
X86000000Y-100000000D03*
X82000000Y-100000000D03*
X82000000Y-95000000D03*
X84000000Y-95000000D03*
X110000000Y-87500000D03*
X108500000Y-87500000D03*
X96000000Y-84500000D03*
X107500000Y-95000000D03*
X114000000Y-91500000D03*
X114000000Y-94500000D03*
X106500000Y-83000000D03*
X107500000Y-78000000D03*
X113500000Y-79500000D03*
X115500000Y-79500000D03*
X98000000Y-87500000D03*
X77000000Y-132500000D03*
X102000000Y-79500000D03*
X76500000Y-98500000D03*
D24*
X100000000Y-90000000D03*
D22*
X78000000Y-98500000D03*
X79500000Y-98500000D03*
X77500000Y-100000000D03*
X90500000Y-93000000D03*
X99500000Y-83000000D03*
X86000000Y-90500000D03*
X86000000Y-93000000D03*
X86000000Y-88000000D03*
D25*
X101000000Y-92500000D02*
X96500000Y-92500000D01*
X96500000Y-92500000D02*
X95000000Y-94000000D01*
D26*
X91000000Y-81500000D02*
X89500000Y-81500000D01*
X91000000Y-81500000D02*
X91000000Y-78500000D01*
X91000000Y-78500000D02*
X92500000Y-78500000D01*
D25*
X99500000Y-81500000D02*
X99500000Y-78000000D01*
X105000000Y-78000000D02*
X105000000Y-85500000D01*
X110000000Y-89000000D02*
X110000000Y-95000000D01*
X110000000Y-100500000D02*
X104000000Y-100500000D01*
D27*
X100000000Y-103500000D02*
X100000000Y-108500000D01*
D14*
X97500000Y-89500000D02*
X97500000Y-91500000D01*
X98500000Y-92500000D02*
X101000000Y-92500000D01*
X97500000Y-91500000D02*
X98500000Y-92500000D01*
D25*
X70000000Y-142500000D02*
X76000000Y-136500000D01*
X76000000Y-136500000D02*
X76000000Y-125000000D01*
X79000000Y-125000000D02*
X79000000Y-123000000D01*
X79000000Y-123000000D02*
X79000000Y-121000000D01*
X79000000Y-121000000D02*
X79000000Y-119000000D01*
X79000000Y-119000000D02*
X79000000Y-110000000D01*
X79000000Y-110000000D02*
X80000000Y-109000000D01*
X82000000Y-105000000D02*
X80000000Y-105000000D01*
X78000000Y-106000000D02*
X76000000Y-108000000D01*
X76000000Y-108000000D02*
X76000000Y-109000000D01*
X76000000Y-109000000D02*
X71000000Y-109000000D01*
X73000000Y-107000000D02*
X75000000Y-105000000D01*
X74000000Y-123000000D02*
X74000000Y-125000000D01*
X72000000Y-125000000D02*
X72000000Y-123000000D01*
X70000000Y-123000000D02*
X70000000Y-125000000D01*
X105000000Y-146000000D02*
X105000000Y-144000000D01*
X102000000Y-144000000D02*
X102000000Y-146000000D01*
X100000000Y-146000000D02*
X100000000Y-144000000D01*
X98000000Y-144000000D02*
X98000000Y-146000000D01*
X100000000Y-144000000D02*
X100000000Y-142000000D01*
X100000000Y-140000000D02*
X100000000Y-138000000D01*
D28*
X70615938Y-147500000D02*
X70000000Y-146884062D01*
X129384062Y-147500000D02*
X70615938Y-147500000D01*
X130000000Y-146884062D02*
X129384062Y-147500000D01*
X70000000Y-146884062D02*
X70000000Y-142500000D01*
X130000000Y-142500000D02*
X130000000Y-146884062D01*
D25*
X99000000Y-98000000D02*
X97500000Y-96500000D01*
X101500000Y-98000000D02*
X99000000Y-98000000D01*
X97500000Y-96500000D02*
X93500000Y-96500000D01*
X91500000Y-97500000D02*
X89500000Y-99500000D01*
X86000000Y-100000000D02*
X82000000Y-100000000D01*
X82000000Y-100000000D02*
X82000000Y-95000000D01*
X110000000Y-87500000D02*
X108500000Y-87500000D01*
X77500000Y-109500000D02*
X77500000Y-127500000D01*
X98000000Y-87500000D02*
X92500000Y-93000000D01*
X92500000Y-93000000D02*
X92500000Y-105500000D01*
X92500000Y-105500000D02*
X91000000Y-107000000D01*
X91000000Y-107000000D02*
X80000000Y-107000000D01*
X80000000Y-107000000D02*
X77500000Y-109500000D01*
X77500000Y-132000000D02*
X77500000Y-127500000D01*
X77000000Y-132500000D02*
X77500000Y-132000000D01*
D27*
X75040000Y-97500000D02*
X76000000Y-97500000D01*
X76000000Y-97500000D02*
X76500000Y-98000000D01*
X76500000Y-98000000D02*
X76500000Y-98500000D01*
D26*
X100000000Y-90000000D02*
X102000000Y-88000000D01*
X102000000Y-88000000D02*
X102000000Y-87000000D01*
X102000000Y-87000000D02*
X102000000Y-79500000D01*
D25*
X80460000Y-85000000D02*
X82460000Y-83000000D01*
X77500000Y-85000000D02*
X80460000Y-85000000D01*
X72500000Y-96336400D02*
X72500000Y-97500000D01*
X78000000Y-97848542D02*
X75651458Y-95500000D01*
X73336400Y-95500000D02*
X72500000Y-96336400D01*
X75651458Y-95500000D02*
X73336400Y-95500000D01*
X78000000Y-98500000D02*
X78000000Y-97848542D01*
X72500000Y-100040000D02*
X71040000Y-100040000D01*
X71040000Y-100040000D02*
X70500000Y-99500000D01*
X70500000Y-99500000D02*
X70500000Y-96962798D01*
X70500000Y-96962798D02*
X72562807Y-94899991D01*
X75899991Y-94899991D02*
X79500000Y-98500000D01*
X72562807Y-94899991D02*
X75899991Y-94899991D01*
X77460000Y-100040000D02*
X77500000Y-100000000D01*
X75040000Y-100040000D02*
X77460000Y-100040000D01*
X98500000Y-84000000D02*
X91000000Y-91500000D01*
X90500000Y-92000000D02*
X91000000Y-91500000D01*
X90500000Y-93000000D02*
X90500000Y-92000000D01*
X98500000Y-84000000D02*
X99500000Y-83000000D01*
X86300000Y-102800000D02*
X87399990Y-101700010D01*
X85149999Y-91350001D02*
X86000000Y-90500000D01*
X87399990Y-101700010D02*
X87399990Y-95657992D01*
X87399990Y-95657992D02*
X85149999Y-93408001D01*
X86300000Y-104250000D02*
X86300000Y-102800000D01*
X85149999Y-93408001D02*
X85149999Y-91350001D01*
X88000000Y-95000000D02*
X86000000Y-93000000D01*
X88000000Y-104250000D02*
X88000000Y-95000000D01*
X87000000Y-89000000D02*
X87000000Y-93151458D01*
X88600010Y-101700010D02*
X89700000Y-102800000D01*
X86000000Y-88000000D02*
X87000000Y-89000000D01*
X89700000Y-102800000D02*
X89700000Y-104250000D01*
X88600010Y-94751468D02*
X88600010Y-101700010D01*
X87000000Y-93151458D02*
X88600010Y-94751468D01*
X119500000Y-88500000D02*
X126000000Y-88500000D01*
X119500000Y-97500000D02*
X126000000Y-97500000D01*
D29*
G36*
X130988596Y-75723440D02*
G01*
X131956478Y-75937128D01*
X132883377Y-76288299D01*
X133749872Y-76769594D01*
X134537815Y-77370934D01*
X135230701Y-78079721D01*
X135814005Y-78881098D01*
X136275518Y-79758292D01*
X136605570Y-80692919D01*
X136797961Y-81669037D01*
X136850000Y-82519866D01*
X136850001Y-142476432D01*
X136776560Y-143488596D01*
X136562872Y-144456478D01*
X136211702Y-145383375D01*
X135730405Y-146249873D01*
X135129069Y-147037813D01*
X134420279Y-147730701D01*
X133618902Y-148314005D01*
X132741708Y-148775518D01*
X131807080Y-149105570D01*
X130830963Y-149297961D01*
X129980134Y-149350000D01*
X70023554Y-149350000D01*
X69011404Y-149276560D01*
X68043522Y-149062872D01*
X67116625Y-148711702D01*
X66250127Y-148230405D01*
X65462187Y-147629069D01*
X64769299Y-146920279D01*
X64185995Y-146118902D01*
X63724482Y-145241708D01*
X63394430Y-144307080D01*
X63202039Y-143330963D01*
X63150000Y-142480134D01*
X63150000Y-139645617D01*
X78825000Y-139645617D01*
X78825000Y-141354384D01*
X78855749Y-141666573D01*
X78977259Y-142067137D01*
X79174580Y-142436299D01*
X79440129Y-142759872D01*
X79763702Y-143025421D01*
X80132864Y-143222742D01*
X80533428Y-143344252D01*
X80950000Y-143385281D01*
X81366573Y-143344252D01*
X81767137Y-143222742D01*
X82136299Y-143025421D01*
X82459872Y-142759872D01*
X82725421Y-142436299D01*
X82922742Y-142067137D01*
X83044252Y-141666572D01*
X83075000Y-141354383D01*
X83075000Y-140525000D01*
X86445000Y-140525000D01*
X86445000Y-141275000D01*
X86490709Y-141689087D01*
X86616324Y-142086300D01*
X86817017Y-142451374D01*
X87085077Y-142770280D01*
X87410201Y-143030762D01*
X87779896Y-143222811D01*
X88179954Y-143339046D01*
X88212908Y-143344782D01*
X88545000Y-143218591D01*
X88545000Y-140525000D01*
X88595000Y-140525000D01*
X88595000Y-143218591D01*
X88927092Y-143344782D01*
X88960046Y-143339046D01*
X89360104Y-143222811D01*
X89729799Y-143030762D01*
X90054923Y-142770280D01*
X90322983Y-142451374D01*
X90523676Y-142086300D01*
X90649291Y-141689087D01*
X90695000Y-141275000D01*
X90695000Y-140525000D01*
X88595000Y-140525000D01*
X88545000Y-140525000D01*
X86445000Y-140525000D01*
X83075000Y-140525000D01*
X83075000Y-139725000D01*
X86445000Y-139725000D01*
X86445000Y-140475000D01*
X88545000Y-140475000D01*
X88545000Y-137781409D01*
X88595000Y-137781409D01*
X88595000Y-140475000D01*
X90695000Y-140475000D01*
X90695000Y-139725000D01*
X90686238Y-139645617D01*
X94065000Y-139645617D01*
X94065000Y-141354384D01*
X94095749Y-141666573D01*
X94217259Y-142067137D01*
X94414580Y-142436299D01*
X94680129Y-142759872D01*
X95003702Y-143025421D01*
X95372864Y-143222742D01*
X95773428Y-143344252D01*
X96190000Y-143385281D01*
X96606573Y-143344252D01*
X97007137Y-143222742D01*
X97376299Y-143025421D01*
X97699872Y-142759872D01*
X97965421Y-142436299D01*
X98162742Y-142067137D01*
X98284252Y-141666572D01*
X98315000Y-141354383D01*
X98315000Y-140525000D01*
X101685000Y-140525000D01*
X101685000Y-141275000D01*
X101730709Y-141689087D01*
X101856324Y-142086300D01*
X102057017Y-142451374D01*
X102325077Y-142770280D01*
X102650201Y-143030762D01*
X103019896Y-143222811D01*
X103419954Y-143339046D01*
X103452908Y-143344782D01*
X103785000Y-143218591D01*
X103785000Y-140525000D01*
X103835000Y-140525000D01*
X103835000Y-143218591D01*
X104167092Y-143344782D01*
X104200046Y-143339046D01*
X104600104Y-143222811D01*
X104969799Y-143030762D01*
X105294923Y-142770280D01*
X105562983Y-142451374D01*
X105763676Y-142086300D01*
X105889291Y-141689087D01*
X105935000Y-141275000D01*
X105935000Y-140525000D01*
X103835000Y-140525000D01*
X103785000Y-140525000D01*
X101685000Y-140525000D01*
X98315000Y-140525000D01*
X98315000Y-139725000D01*
X101685000Y-139725000D01*
X101685000Y-140475000D01*
X103785000Y-140475000D01*
X103785000Y-137781409D01*
X103835000Y-137781409D01*
X103835000Y-140475000D01*
X105935000Y-140475000D01*
X105935000Y-139725000D01*
X105926238Y-139645617D01*
X109305000Y-139645617D01*
X109305000Y-141354384D01*
X109335749Y-141666573D01*
X109457259Y-142067137D01*
X109654580Y-142436299D01*
X109920129Y-142759872D01*
X110243702Y-143025421D01*
X110612864Y-143222742D01*
X111013428Y-143344252D01*
X111430000Y-143385281D01*
X111846573Y-143344252D01*
X112247137Y-143222742D01*
X112616299Y-143025421D01*
X112939872Y-142759872D01*
X113205421Y-142436299D01*
X113402742Y-142067137D01*
X113524252Y-141666572D01*
X113555000Y-141354383D01*
X113555000Y-139645617D01*
X116925000Y-139645617D01*
X116925000Y-141354384D01*
X116955749Y-141666573D01*
X117077259Y-142067137D01*
X117274580Y-142436299D01*
X117540129Y-142759872D01*
X117863702Y-143025421D01*
X118232864Y-143222742D01*
X118633428Y-143344252D01*
X119050000Y-143385281D01*
X119466573Y-143344252D01*
X119867137Y-143222742D01*
X120236299Y-143025421D01*
X120559872Y-142759872D01*
X120825421Y-142436299D01*
X121022742Y-142067137D01*
X121144252Y-141666572D01*
X121175000Y-141354383D01*
X121175000Y-139645616D01*
X121144252Y-139333427D01*
X121022742Y-138932863D01*
X120825421Y-138563701D01*
X120559872Y-138240128D01*
X120236299Y-137974579D01*
X119867136Y-137777258D01*
X119466572Y-137655748D01*
X119050000Y-137614719D01*
X118633427Y-137655748D01*
X118232863Y-137777258D01*
X117863701Y-137974579D01*
X117540128Y-138240128D01*
X117274579Y-138563701D01*
X117077258Y-138932864D01*
X116955748Y-139333428D01*
X116925000Y-139645617D01*
X113555000Y-139645617D01*
X113555000Y-139645616D01*
X113524252Y-139333427D01*
X113402742Y-138932863D01*
X113205421Y-138563701D01*
X112939872Y-138240128D01*
X112616299Y-137974579D01*
X112247136Y-137777258D01*
X111846572Y-137655748D01*
X111430000Y-137614719D01*
X111013427Y-137655748D01*
X110612863Y-137777258D01*
X110243701Y-137974579D01*
X109920128Y-138240128D01*
X109654579Y-138563701D01*
X109457258Y-138932864D01*
X109335748Y-139333428D01*
X109305000Y-139645617D01*
X105926238Y-139645617D01*
X105889291Y-139310913D01*
X105763676Y-138913700D01*
X105562983Y-138548626D01*
X105294923Y-138229720D01*
X104969799Y-137969238D01*
X104600104Y-137777189D01*
X104200046Y-137660954D01*
X104167092Y-137655218D01*
X103835000Y-137781409D01*
X103785000Y-137781409D01*
X103452908Y-137655218D01*
X103419954Y-137660954D01*
X103019896Y-137777189D01*
X102650201Y-137969238D01*
X102325077Y-138229720D01*
X102057017Y-138548626D01*
X101856324Y-138913700D01*
X101730709Y-139310913D01*
X101685000Y-139725000D01*
X98315000Y-139725000D01*
X98315000Y-139645616D01*
X98284252Y-139333427D01*
X98162742Y-138932863D01*
X97965421Y-138563701D01*
X97699872Y-138240128D01*
X97376299Y-137974579D01*
X97007136Y-137777258D01*
X96606572Y-137655748D01*
X96190000Y-137614719D01*
X95773427Y-137655748D01*
X95372863Y-137777258D01*
X95003701Y-137974579D01*
X94680128Y-138240128D01*
X94414579Y-138563701D01*
X94217258Y-138932864D01*
X94095748Y-139333428D01*
X94065000Y-139645617D01*
X90686238Y-139645617D01*
X90649291Y-139310913D01*
X90523676Y-138913700D01*
X90322983Y-138548626D01*
X90054923Y-138229720D01*
X89729799Y-137969238D01*
X89360104Y-137777189D01*
X88960046Y-137660954D01*
X88927092Y-137655218D01*
X88595000Y-137781409D01*
X88545000Y-137781409D01*
X88212908Y-137655218D01*
X88179954Y-137660954D01*
X87779896Y-137777189D01*
X87410201Y-137969238D01*
X87085077Y-138229720D01*
X86817017Y-138548626D01*
X86616324Y-138913700D01*
X86490709Y-139310913D01*
X86445000Y-139725000D01*
X83075000Y-139725000D01*
X83075000Y-139645616D01*
X83044252Y-139333427D01*
X82922742Y-138932863D01*
X82725421Y-138563701D01*
X82459872Y-138240128D01*
X82136299Y-137974579D01*
X81767136Y-137777258D01*
X81366572Y-137655748D01*
X80950000Y-137614719D01*
X80533427Y-137655748D01*
X80132863Y-137777258D01*
X79763701Y-137974579D01*
X79440128Y-138240128D01*
X79174579Y-138563701D01*
X78977258Y-138932864D01*
X78855748Y-139333428D01*
X78825000Y-139645617D01*
X63150000Y-139645617D01*
X63150000Y-132399046D01*
X75975000Y-132399046D01*
X75975000Y-132600954D01*
X76014390Y-132798982D01*
X76091656Y-132985520D01*
X76203830Y-133153400D01*
X76346600Y-133296170D01*
X76514480Y-133408344D01*
X76701018Y-133485610D01*
X76899046Y-133525000D01*
X77100954Y-133525000D01*
X77298982Y-133485610D01*
X77485520Y-133408344D01*
X77653400Y-133296170D01*
X77796170Y-133153400D01*
X77908344Y-132985520D01*
X77985610Y-132798982D01*
X78025000Y-132600954D01*
X78025000Y-132571717D01*
X78050659Y-132550659D01*
X78123962Y-132461339D01*
X78147506Y-132432651D01*
X78185971Y-132360687D01*
X78219470Y-132298014D01*
X78263786Y-132151926D01*
X78275000Y-132038065D01*
X78275000Y-132038063D01*
X78278749Y-132000000D01*
X78275000Y-131961937D01*
X78275000Y-109931250D01*
X85125000Y-109931250D01*
X85125000Y-110961557D01*
X85149018Y-111082306D01*
X85196132Y-111196049D01*
X85264531Y-111298414D01*
X85351586Y-111385469D01*
X85453952Y-111453868D01*
X85567694Y-111500982D01*
X85688443Y-111525000D01*
X86118750Y-111525000D01*
X86275000Y-111368750D01*
X86275000Y-109775000D01*
X86325000Y-109775000D01*
X86325000Y-111368750D01*
X86481250Y-111525000D01*
X86911557Y-111525000D01*
X87032306Y-111500982D01*
X87146048Y-111453868D01*
X87150000Y-111451227D01*
X87153952Y-111453868D01*
X87267694Y-111500982D01*
X87388443Y-111525000D01*
X87818750Y-111525000D01*
X87975000Y-111368750D01*
X87975000Y-109775000D01*
X88025000Y-109775000D01*
X88025000Y-111368750D01*
X88181250Y-111525000D01*
X88611557Y-111525000D01*
X88732306Y-111500982D01*
X88846048Y-111453868D01*
X88850000Y-111451227D01*
X88853952Y-111453868D01*
X88967694Y-111500982D01*
X89088443Y-111525000D01*
X89518750Y-111525000D01*
X89675000Y-111368750D01*
X89675000Y-109775000D01*
X89725000Y-109775000D01*
X89725000Y-111368750D01*
X89881250Y-111525000D01*
X90311557Y-111525000D01*
X90432306Y-111500982D01*
X90546048Y-111453868D01*
X90648414Y-111385469D01*
X90735469Y-111298414D01*
X90803868Y-111196049D01*
X90850982Y-111082306D01*
X90875000Y-110961557D01*
X90875000Y-109931250D01*
X90718750Y-109775000D01*
X89725000Y-109775000D01*
X89675000Y-109775000D01*
X88025000Y-109775000D01*
X87975000Y-109775000D01*
X86325000Y-109775000D01*
X86275000Y-109775000D01*
X85281250Y-109775000D01*
X85125000Y-109931250D01*
X78275000Y-109931250D01*
X78275000Y-109821014D01*
X79557571Y-108538443D01*
X85125000Y-108538443D01*
X85125000Y-109568750D01*
X85281250Y-109725000D01*
X86275000Y-109725000D01*
X86275000Y-108131250D01*
X86325000Y-108131250D01*
X86325000Y-109725000D01*
X87975000Y-109725000D01*
X87975000Y-108131250D01*
X88025000Y-108131250D01*
X88025000Y-109725000D01*
X89675000Y-109725000D01*
X89675000Y-108131250D01*
X89725000Y-108131250D01*
X89725000Y-109725000D01*
X90718750Y-109725000D01*
X90875000Y-109568750D01*
X90875000Y-108538443D01*
X90850982Y-108417694D01*
X90803868Y-108303951D01*
X90735469Y-108201586D01*
X90648414Y-108114531D01*
X90546048Y-108046132D01*
X90432306Y-107999018D01*
X90311557Y-107975000D01*
X89881250Y-107975000D01*
X89725000Y-108131250D01*
X89675000Y-108131250D01*
X89518750Y-107975000D01*
X89088443Y-107975000D01*
X88967694Y-107999018D01*
X88853952Y-108046132D01*
X88850000Y-108048773D01*
X88846048Y-108046132D01*
X88732306Y-107999018D01*
X88611557Y-107975000D01*
X88181250Y-107975000D01*
X88025000Y-108131250D01*
X87975000Y-108131250D01*
X87818750Y-107975000D01*
X87388443Y-107975000D01*
X87267694Y-107999018D01*
X87153952Y-108046132D01*
X87150000Y-108048773D01*
X87146048Y-108046132D01*
X87032306Y-107999018D01*
X86911557Y-107975000D01*
X86481250Y-107975000D01*
X86325000Y-108131250D01*
X86275000Y-108131250D01*
X86118750Y-107975000D01*
X85688443Y-107975000D01*
X85567694Y-107999018D01*
X85453952Y-108046132D01*
X85351586Y-108114531D01*
X85264531Y-108201586D01*
X85196132Y-108303951D01*
X85149018Y-108417694D01*
X85125000Y-108538443D01*
X79557571Y-108538443D01*
X80321015Y-107775000D01*
X90961937Y-107775000D01*
X91000000Y-107778749D01*
X91038063Y-107775000D01*
X91038065Y-107775000D01*
X91151926Y-107763786D01*
X91298014Y-107719470D01*
X91432650Y-107647506D01*
X91550659Y-107550659D01*
X91574932Y-107521082D01*
X93021087Y-106074928D01*
X93050659Y-106050659D01*
X93147506Y-105932650D01*
X93219470Y-105798014D01*
X93263786Y-105651926D01*
X93275000Y-105538065D01*
X93275000Y-105538064D01*
X93278749Y-105500001D01*
X93275000Y-105461938D01*
X93275000Y-103061651D01*
X118473705Y-103061651D01*
X118560565Y-103335554D01*
X118839169Y-103493166D01*
X119143168Y-103593397D01*
X119460881Y-103632395D01*
X119780097Y-103608660D01*
X120088549Y-103523107D01*
X120374383Y-103379020D01*
X120439435Y-103335554D01*
X120526295Y-103061651D01*
X124973705Y-103061651D01*
X125060565Y-103335554D01*
X125339169Y-103493166D01*
X125643168Y-103593397D01*
X125960881Y-103632395D01*
X126280097Y-103608660D01*
X126588549Y-103523107D01*
X126874383Y-103379020D01*
X126939435Y-103335554D01*
X127026295Y-103061651D01*
X126000000Y-102035355D01*
X124973705Y-103061651D01*
X120526295Y-103061651D01*
X119500000Y-102035355D01*
X118473705Y-103061651D01*
X93275000Y-103061651D01*
X93275000Y-101960881D01*
X117867605Y-101960881D01*
X117891340Y-102280097D01*
X117976893Y-102588549D01*
X118120980Y-102874383D01*
X118164446Y-102939435D01*
X118438349Y-103026295D01*
X119464645Y-102000000D01*
X119535355Y-102000000D01*
X120561651Y-103026295D01*
X120835554Y-102939435D01*
X120993166Y-102660831D01*
X121093397Y-102356832D01*
X121132395Y-102039119D01*
X121126578Y-101960881D01*
X124367605Y-101960881D01*
X124391340Y-102280097D01*
X124476893Y-102588549D01*
X124620980Y-102874383D01*
X124664446Y-102939435D01*
X124938349Y-103026295D01*
X125964645Y-102000000D01*
X126035355Y-102000000D01*
X127061651Y-103026295D01*
X127335554Y-102939435D01*
X127493166Y-102660831D01*
X127593397Y-102356832D01*
X127632395Y-102039119D01*
X127608660Y-101719903D01*
X127523107Y-101411451D01*
X127379020Y-101125617D01*
X127335554Y-101060565D01*
X127061651Y-100973705D01*
X126035355Y-102000000D01*
X125964645Y-102000000D01*
X124938349Y-100973705D01*
X124664446Y-101060565D01*
X124506834Y-101339169D01*
X124406603Y-101643168D01*
X124367605Y-101960881D01*
X121126578Y-101960881D01*
X121108660Y-101719903D01*
X121023107Y-101411451D01*
X120879020Y-101125617D01*
X120835554Y-101060565D01*
X120561651Y-100973705D01*
X119535355Y-102000000D01*
X119464645Y-102000000D01*
X118438349Y-100973705D01*
X118164446Y-101060565D01*
X118006834Y-101339169D01*
X117906603Y-101643168D01*
X117867605Y-101960881D01*
X93275000Y-101960881D01*
X93275000Y-100938349D01*
X118473705Y-100938349D01*
X119500000Y-101964645D01*
X120526295Y-100938349D01*
X124973705Y-100938349D01*
X126000000Y-101964645D01*
X127026295Y-100938349D01*
X126939435Y-100664446D01*
X126660831Y-100506834D01*
X126356832Y-100406603D01*
X126039119Y-100367605D01*
X125719903Y-100391340D01*
X125411451Y-100476893D01*
X125125617Y-100620980D01*
X125060565Y-100664446D01*
X124973705Y-100938349D01*
X120526295Y-100938349D01*
X120439435Y-100664446D01*
X120160831Y-100506834D01*
X119856832Y-100406603D01*
X119539119Y-100367605D01*
X119219903Y-100391340D01*
X118911451Y-100476893D01*
X118625617Y-100620980D01*
X118560565Y-100664446D01*
X118473705Y-100938349D01*
X93275000Y-100938349D01*
X93275000Y-97339951D01*
X117875000Y-97339951D01*
X117875000Y-97660049D01*
X117937448Y-97973995D01*
X118059943Y-98269726D01*
X118237780Y-98535877D01*
X118464123Y-98762220D01*
X118730274Y-98940057D01*
X119026005Y-99062552D01*
X119339951Y-99125000D01*
X119660049Y-99125000D01*
X119973995Y-99062552D01*
X120269726Y-98940057D01*
X120535877Y-98762220D01*
X120762220Y-98535877D01*
X120936533Y-98275000D01*
X124563467Y-98275000D01*
X124737780Y-98535877D01*
X124964123Y-98762220D01*
X125230274Y-98940057D01*
X125526005Y-99062552D01*
X125839951Y-99125000D01*
X126160049Y-99125000D01*
X126473995Y-99062552D01*
X126769726Y-98940057D01*
X127035877Y-98762220D01*
X127262220Y-98535877D01*
X127440057Y-98269726D01*
X127562552Y-97973995D01*
X127625000Y-97660049D01*
X127625000Y-97339951D01*
X127562552Y-97026005D01*
X127440057Y-96730274D01*
X127262220Y-96464123D01*
X127035877Y-96237780D01*
X126769726Y-96059943D01*
X126473995Y-95937448D01*
X126160049Y-95875000D01*
X125839951Y-95875000D01*
X125526005Y-95937448D01*
X125230274Y-96059943D01*
X124964123Y-96237780D01*
X124737780Y-96464123D01*
X124563467Y-96725000D01*
X120936533Y-96725000D01*
X120762220Y-96464123D01*
X120535877Y-96237780D01*
X120269726Y-96059943D01*
X119973995Y-95937448D01*
X119660049Y-95875000D01*
X119339951Y-95875000D01*
X119026005Y-95937448D01*
X118730274Y-96059943D01*
X118464123Y-96237780D01*
X118237780Y-96464123D01*
X118059943Y-96730274D01*
X117937448Y-97026005D01*
X117875000Y-97339951D01*
X93275000Y-97339951D01*
X93275000Y-94061651D01*
X118473705Y-94061651D01*
X118560565Y-94335554D01*
X118839169Y-94493166D01*
X119143168Y-94593397D01*
X119460881Y-94632395D01*
X119780097Y-94608660D01*
X120088549Y-94523107D01*
X120374383Y-94379020D01*
X120439435Y-94335554D01*
X120526295Y-94061651D01*
X124973705Y-94061651D01*
X125060565Y-94335554D01*
X125339169Y-94493166D01*
X125643168Y-94593397D01*
X125960881Y-94632395D01*
X126280097Y-94608660D01*
X126588549Y-94523107D01*
X126874383Y-94379020D01*
X126939435Y-94335554D01*
X127026295Y-94061651D01*
X126000000Y-93035355D01*
X124973705Y-94061651D01*
X120526295Y-94061651D01*
X119500000Y-93035355D01*
X118473705Y-94061651D01*
X93275000Y-94061651D01*
X93275000Y-93321014D01*
X93635133Y-92960881D01*
X117867605Y-92960881D01*
X117891340Y-93280097D01*
X117976893Y-93588549D01*
X118120980Y-93874383D01*
X118164446Y-93939435D01*
X118438349Y-94026295D01*
X119464645Y-93000000D01*
X119535355Y-93000000D01*
X120561651Y-94026295D01*
X120835554Y-93939435D01*
X120993166Y-93660831D01*
X121093397Y-93356832D01*
X121132395Y-93039119D01*
X121126578Y-92960881D01*
X124367605Y-92960881D01*
X124391340Y-93280097D01*
X124476893Y-93588549D01*
X124620980Y-93874383D01*
X124664446Y-93939435D01*
X124938349Y-94026295D01*
X125964645Y-93000000D01*
X126035355Y-93000000D01*
X127061651Y-94026295D01*
X127335554Y-93939435D01*
X127493166Y-93660831D01*
X127593397Y-93356832D01*
X127632395Y-93039119D01*
X127608660Y-92719903D01*
X127523107Y-92411451D01*
X127379020Y-92125617D01*
X127335554Y-92060565D01*
X127061651Y-91973705D01*
X126035355Y-93000000D01*
X125964645Y-93000000D01*
X124938349Y-91973705D01*
X124664446Y-92060565D01*
X124506834Y-92339169D01*
X124406603Y-92643168D01*
X124367605Y-92960881D01*
X121126578Y-92960881D01*
X121108660Y-92719903D01*
X121023107Y-92411451D01*
X120879020Y-92125617D01*
X120835554Y-92060565D01*
X120561651Y-91973705D01*
X119535355Y-93000000D01*
X119464645Y-93000000D01*
X118438349Y-91973705D01*
X118164446Y-92060565D01*
X118006834Y-92339169D01*
X117906603Y-92643168D01*
X117867605Y-92960881D01*
X93635133Y-92960881D01*
X96805309Y-89790706D01*
X97875000Y-89790706D01*
X97875000Y-90209294D01*
X97956663Y-90619840D01*
X98116849Y-91006565D01*
X98349405Y-91354609D01*
X98645391Y-91650595D01*
X98993435Y-91883151D01*
X99380160Y-92043337D01*
X99790706Y-92125000D01*
X100209294Y-92125000D01*
X100619840Y-92043337D01*
X100873304Y-91938349D01*
X118473705Y-91938349D01*
X119500000Y-92964645D01*
X120526295Y-91938349D01*
X124973705Y-91938349D01*
X126000000Y-92964645D01*
X127026295Y-91938349D01*
X126939435Y-91664446D01*
X126660831Y-91506834D01*
X126356832Y-91406603D01*
X126039119Y-91367605D01*
X125719903Y-91391340D01*
X125411451Y-91476893D01*
X125125617Y-91620980D01*
X125060565Y-91664446D01*
X124973705Y-91938349D01*
X120526295Y-91938349D01*
X120439435Y-91664446D01*
X120160831Y-91506834D01*
X119856832Y-91406603D01*
X119539119Y-91367605D01*
X119219903Y-91391340D01*
X118911451Y-91476893D01*
X118625617Y-91620980D01*
X118560565Y-91664446D01*
X118473705Y-91938349D01*
X100873304Y-91938349D01*
X101006565Y-91883151D01*
X101354609Y-91650595D01*
X101650595Y-91354609D01*
X101883151Y-91006565D01*
X102043337Y-90619840D01*
X102125000Y-90209294D01*
X102125000Y-89790706D01*
X102043337Y-89380160D01*
X101968131Y-89198595D01*
X102554711Y-88612015D01*
X102586185Y-88586185D01*
X102689281Y-88460563D01*
X102753749Y-88339951D01*
X117875000Y-88339951D01*
X117875000Y-88660049D01*
X117937448Y-88973995D01*
X118059943Y-89269726D01*
X118237780Y-89535877D01*
X118464123Y-89762220D01*
X118730274Y-89940057D01*
X119026005Y-90062552D01*
X119339951Y-90125000D01*
X119660049Y-90125000D01*
X119973995Y-90062552D01*
X120269726Y-89940057D01*
X120535877Y-89762220D01*
X120762220Y-89535877D01*
X120936533Y-89275000D01*
X124563467Y-89275000D01*
X124737780Y-89535877D01*
X124964123Y-89762220D01*
X125230274Y-89940057D01*
X125526005Y-90062552D01*
X125839951Y-90125000D01*
X126160049Y-90125000D01*
X126473995Y-90062552D01*
X126769726Y-89940057D01*
X127035877Y-89762220D01*
X127262220Y-89535877D01*
X127440057Y-89269726D01*
X127562552Y-88973995D01*
X127625000Y-88660049D01*
X127625000Y-88339951D01*
X127562552Y-88026005D01*
X127440057Y-87730274D01*
X127262220Y-87464123D01*
X127035877Y-87237780D01*
X126769726Y-87059943D01*
X126473995Y-86937448D01*
X126160049Y-86875000D01*
X125839951Y-86875000D01*
X125526005Y-86937448D01*
X125230274Y-87059943D01*
X124964123Y-87237780D01*
X124737780Y-87464123D01*
X124563467Y-87725000D01*
X120936533Y-87725000D01*
X120762220Y-87464123D01*
X120535877Y-87237780D01*
X120269726Y-87059943D01*
X119973995Y-86937448D01*
X119660049Y-86875000D01*
X119339951Y-86875000D01*
X119026005Y-86937448D01*
X118730274Y-87059943D01*
X118464123Y-87237780D01*
X118237780Y-87464123D01*
X118059943Y-87730274D01*
X117937448Y-88026005D01*
X117875000Y-88339951D01*
X102753749Y-88339951D01*
X102765888Y-88317241D01*
X102813062Y-88161728D01*
X102825000Y-88040521D01*
X102825000Y-88040514D01*
X102828990Y-88000001D01*
X102825000Y-87959488D01*
X102825000Y-80110253D01*
X102908344Y-79985520D01*
X102985610Y-79798982D01*
X103025000Y-79600954D01*
X103025000Y-79399046D01*
X102985610Y-79201018D01*
X102908344Y-79014480D01*
X102796170Y-78846600D01*
X102653400Y-78703830D01*
X102485520Y-78591656D01*
X102298982Y-78514390D01*
X102100954Y-78475000D01*
X101899046Y-78475000D01*
X101701018Y-78514390D01*
X101514480Y-78591656D01*
X101346600Y-78703830D01*
X101203830Y-78846600D01*
X101091656Y-79014480D01*
X101014390Y-79201018D01*
X100975000Y-79399046D01*
X100975000Y-79600954D01*
X101014390Y-79798982D01*
X101091656Y-79985520D01*
X101175001Y-80110254D01*
X101175000Y-87040520D01*
X101175001Y-87040529D01*
X101175000Y-87658274D01*
X100801405Y-88031869D01*
X100619840Y-87956663D01*
X100209294Y-87875000D01*
X99790706Y-87875000D01*
X99380160Y-87956663D01*
X98993435Y-88116849D01*
X98645391Y-88349405D01*
X98349405Y-88645391D01*
X98116849Y-88993435D01*
X97956663Y-89380160D01*
X97875000Y-89790706D01*
X96805309Y-89790706D01*
X98071016Y-88525000D01*
X98100954Y-88525000D01*
X98298982Y-88485610D01*
X98485520Y-88408344D01*
X98653400Y-88296170D01*
X98796170Y-88153400D01*
X98908344Y-87985520D01*
X98985610Y-87798982D01*
X99025000Y-87600954D01*
X99025000Y-87399046D01*
X98985610Y-87201018D01*
X98908344Y-87014480D01*
X98796170Y-86846600D01*
X98653400Y-86703830D01*
X98485520Y-86591656D01*
X98298982Y-86514390D01*
X98100954Y-86475000D01*
X97899046Y-86475000D01*
X97701018Y-86514390D01*
X97514480Y-86591656D01*
X97346600Y-86703830D01*
X97203830Y-86846600D01*
X97091656Y-87014480D01*
X97014390Y-87201018D01*
X96975000Y-87399046D01*
X96975000Y-87428984D01*
X91978918Y-92425068D01*
X91949341Y-92449341D01*
X91904524Y-92503952D01*
X91852494Y-92567350D01*
X91847585Y-92576535D01*
X91780530Y-92701987D01*
X91736214Y-92848075D01*
X91731194Y-92899046D01*
X91721251Y-93000000D01*
X91725000Y-93038063D01*
X91725001Y-105178984D01*
X90678986Y-106225000D01*
X80038063Y-106225000D01*
X80000000Y-106221251D01*
X79961937Y-106225000D01*
X79961935Y-106225000D01*
X79848074Y-106236214D01*
X79701986Y-106280530D01*
X79639313Y-106314029D01*
X79567349Y-106352494D01*
X79524888Y-106387342D01*
X79449341Y-106449341D01*
X79425072Y-106478913D01*
X76978918Y-108925068D01*
X76949341Y-108949341D01*
X76878121Y-109036125D01*
X76852494Y-109067350D01*
X76814029Y-109139314D01*
X76780530Y-109201987D01*
X76736214Y-109348075D01*
X76725000Y-109461935D01*
X76721251Y-109500000D01*
X76725000Y-109538063D01*
X76725001Y-127461935D01*
X76725000Y-131509620D01*
X76701018Y-131514390D01*
X76514480Y-131591656D01*
X76346600Y-131703830D01*
X76203830Y-131846600D01*
X76091656Y-132014480D01*
X76014390Y-132201018D01*
X75975000Y-132399046D01*
X63150000Y-132399046D01*
X63150000Y-96962798D01*
X69721251Y-96962798D01*
X69725001Y-97000871D01*
X69725000Y-99461937D01*
X69721251Y-99500000D01*
X69725000Y-99538063D01*
X69725000Y-99538064D01*
X69736214Y-99651925D01*
X69780530Y-99798013D01*
X69780531Y-99798014D01*
X69852494Y-99932650D01*
X69878121Y-99963875D01*
X69949341Y-100050659D01*
X69978918Y-100074932D01*
X70465072Y-100561087D01*
X70489341Y-100590659D01*
X70607350Y-100687506D01*
X70741986Y-100759470D01*
X70888074Y-100803786D01*
X71001935Y-100815000D01*
X71001936Y-100815000D01*
X71039999Y-100818749D01*
X71078062Y-100815000D01*
X71226341Y-100815000D01*
X71256286Y-100871023D01*
X71442308Y-101097692D01*
X71668977Y-101283714D01*
X71718155Y-101310000D01*
X71668977Y-101336286D01*
X71442308Y-101522308D01*
X71256286Y-101748977D01*
X71118059Y-102007581D01*
X71032939Y-102288184D01*
X71004198Y-102580000D01*
X71032939Y-102871816D01*
X71118059Y-103152419D01*
X71256286Y-103411023D01*
X71442308Y-103637692D01*
X71668977Y-103823714D01*
X71927581Y-103961941D01*
X72208184Y-104047061D01*
X72426876Y-104068600D01*
X72573124Y-104068600D01*
X72791816Y-104047061D01*
X73072419Y-103961941D01*
X73331023Y-103823714D01*
X73557692Y-103637692D01*
X73743714Y-103411023D01*
X73772734Y-103356731D01*
X73784000Y-103378999D01*
X73964011Y-103608680D01*
X74185371Y-103798829D01*
X74439574Y-103942139D01*
X74716851Y-104033103D01*
X74782472Y-104046155D01*
X75015000Y-103912115D01*
X75015000Y-102605000D01*
X75065000Y-102605000D01*
X75065000Y-103912115D01*
X75297528Y-104046155D01*
X75363149Y-104033103D01*
X75640426Y-103942139D01*
X75894629Y-103798829D01*
X76115989Y-103608680D01*
X76296000Y-103378999D01*
X76427743Y-103118613D01*
X76506156Y-102837528D01*
X76372141Y-102605000D01*
X75065000Y-102605000D01*
X75015000Y-102605000D01*
X74995000Y-102605000D01*
X74995000Y-102555000D01*
X75015000Y-102555000D01*
X75015000Y-102535000D01*
X75065000Y-102535000D01*
X75065000Y-102555000D01*
X76372141Y-102555000D01*
X76506156Y-102322472D01*
X76427743Y-102041387D01*
X76296000Y-101781001D01*
X76115989Y-101551320D01*
X75894629Y-101361171D01*
X75812614Y-101314934D01*
X75871023Y-101283714D01*
X76097692Y-101097692D01*
X76283714Y-100871023D01*
X76313659Y-100815000D01*
X76874781Y-100815000D01*
X77014480Y-100908344D01*
X77201018Y-100985610D01*
X77399046Y-101025000D01*
X77600954Y-101025000D01*
X77798982Y-100985610D01*
X77985520Y-100908344D01*
X78153400Y-100796170D01*
X78296170Y-100653400D01*
X78408344Y-100485520D01*
X78485610Y-100298982D01*
X78525000Y-100100954D01*
X78525000Y-99899046D01*
X78485610Y-99701018D01*
X78408344Y-99514480D01*
X78369529Y-99456389D01*
X78485520Y-99408344D01*
X78653400Y-99296170D01*
X78750000Y-99199570D01*
X78846600Y-99296170D01*
X79014480Y-99408344D01*
X79201018Y-99485610D01*
X79399046Y-99525000D01*
X79600954Y-99525000D01*
X79798982Y-99485610D01*
X79985520Y-99408344D01*
X80153400Y-99296170D01*
X80296170Y-99153400D01*
X80408344Y-98985520D01*
X80485610Y-98798982D01*
X80525000Y-98600954D01*
X80525000Y-98399046D01*
X80485610Y-98201018D01*
X80408344Y-98014480D01*
X80296170Y-97846600D01*
X80153400Y-97703830D01*
X79985520Y-97591656D01*
X79798982Y-97514390D01*
X79600954Y-97475000D01*
X79571016Y-97475000D01*
X76474923Y-94378909D01*
X76450650Y-94349332D01*
X76332641Y-94252485D01*
X76198005Y-94180521D01*
X76051917Y-94136205D01*
X75938056Y-94124991D01*
X75938054Y-94124991D01*
X75899991Y-94121242D01*
X75861928Y-94124991D01*
X72600870Y-94124991D01*
X72562807Y-94121242D01*
X72524744Y-94124991D01*
X72524742Y-94124991D01*
X72410881Y-94136205D01*
X72298794Y-94170207D01*
X72264792Y-94180521D01*
X72130156Y-94252485D01*
X72049328Y-94318819D01*
X72012148Y-94349332D01*
X71987883Y-94378899D01*
X69978914Y-96387870D01*
X69949342Y-96412139D01*
X69906680Y-96464123D01*
X69852494Y-96530148D01*
X69780531Y-96664784D01*
X69736215Y-96810872D01*
X69721251Y-96962798D01*
X63150000Y-96962798D01*
X63150000Y-91350001D01*
X84371250Y-91350001D01*
X84375000Y-91388074D01*
X84374999Y-93369938D01*
X84371250Y-93408001D01*
X84374999Y-93446064D01*
X84374999Y-93446065D01*
X84386213Y-93559926D01*
X84430529Y-93706014D01*
X84461408Y-93763785D01*
X84502493Y-93840651D01*
X84527341Y-93870928D01*
X84599340Y-93958660D01*
X84628917Y-93982933D01*
X86624991Y-95979008D01*
X86624990Y-101378995D01*
X85778914Y-102225072D01*
X85749342Y-102249341D01*
X85717465Y-102288184D01*
X85652494Y-102367350D01*
X85582892Y-102497568D01*
X85509666Y-102519781D01*
X85401089Y-102577817D01*
X85305920Y-102655920D01*
X85227817Y-102751089D01*
X85169781Y-102859666D01*
X85134043Y-102977479D01*
X85121976Y-103100000D01*
X85121976Y-105400000D01*
X85134043Y-105522521D01*
X85169781Y-105640334D01*
X85227817Y-105748911D01*
X85305920Y-105844080D01*
X85401089Y-105922183D01*
X85509666Y-105980219D01*
X85627479Y-106015957D01*
X85750000Y-106028024D01*
X86850000Y-106028024D01*
X86972521Y-106015957D01*
X87090334Y-105980219D01*
X87150000Y-105948327D01*
X87209666Y-105980219D01*
X87327479Y-106015957D01*
X87450000Y-106028024D01*
X88550000Y-106028024D01*
X88672521Y-106015957D01*
X88790334Y-105980219D01*
X88850000Y-105948327D01*
X88909666Y-105980219D01*
X89027479Y-106015957D01*
X89150000Y-106028024D01*
X90250000Y-106028024D01*
X90372521Y-106015957D01*
X90490334Y-105980219D01*
X90598911Y-105922183D01*
X90694080Y-105844080D01*
X90772183Y-105748911D01*
X90830219Y-105640334D01*
X90865957Y-105522521D01*
X90878024Y-105400000D01*
X90878024Y-103100000D01*
X90865957Y-102977479D01*
X90830219Y-102859666D01*
X90772183Y-102751089D01*
X90694080Y-102655920D01*
X90598911Y-102577817D01*
X90490334Y-102519781D01*
X90417109Y-102497568D01*
X90347507Y-102367351D01*
X90347506Y-102367349D01*
X90282536Y-102288184D01*
X90250659Y-102249341D01*
X90221088Y-102225073D01*
X89375010Y-101378996D01*
X89375010Y-94789531D01*
X89378759Y-94751468D01*
X89375010Y-94713403D01*
X89363796Y-94599542D01*
X89319480Y-94453454D01*
X89285981Y-94390781D01*
X89247516Y-94318817D01*
X89193078Y-94252485D01*
X89150669Y-94200809D01*
X89121098Y-94176541D01*
X87843603Y-92899046D01*
X89475000Y-92899046D01*
X89475000Y-93100954D01*
X89514390Y-93298982D01*
X89591656Y-93485520D01*
X89703830Y-93653400D01*
X89846600Y-93796170D01*
X90014480Y-93908344D01*
X90201018Y-93985610D01*
X90399046Y-94025000D01*
X90600954Y-94025000D01*
X90798982Y-93985610D01*
X90985520Y-93908344D01*
X91153400Y-93796170D01*
X91296170Y-93653400D01*
X91408344Y-93485520D01*
X91485610Y-93298982D01*
X91525000Y-93100954D01*
X91525000Y-92899046D01*
X91485610Y-92701018D01*
X91408344Y-92514480D01*
X91296170Y-92346600D01*
X91275000Y-92325430D01*
X91275000Y-92321014D01*
X91574923Y-92021091D01*
X99074923Y-84521092D01*
X99074927Y-84521087D01*
X99571015Y-84025000D01*
X99600954Y-84025000D01*
X99798982Y-83985610D01*
X99985520Y-83908344D01*
X100153400Y-83796170D01*
X100296170Y-83653400D01*
X100408344Y-83485520D01*
X100485610Y-83298982D01*
X100525000Y-83100954D01*
X100525000Y-82899046D01*
X100485610Y-82701018D01*
X100408344Y-82514480D01*
X100296170Y-82346600D01*
X100153400Y-82203830D01*
X99985520Y-82091656D01*
X99798982Y-82014390D01*
X99600954Y-81975000D01*
X99399046Y-81975000D01*
X99201018Y-82014390D01*
X99014480Y-82091656D01*
X98846600Y-82203830D01*
X98703830Y-82346600D01*
X98591656Y-82514480D01*
X98514390Y-82701018D01*
X98475000Y-82899046D01*
X98475000Y-82928985D01*
X97978913Y-83425073D01*
X97978908Y-83425077D01*
X90478909Y-90925077D01*
X89978914Y-91425072D01*
X89949342Y-91449341D01*
X89906186Y-91501927D01*
X89852494Y-91567350D01*
X89780531Y-91701986D01*
X89736215Y-91848074D01*
X89721251Y-92000000D01*
X89725001Y-92038072D01*
X89725001Y-92325429D01*
X89703830Y-92346600D01*
X89591656Y-92514480D01*
X89514390Y-92701018D01*
X89475000Y-92899046D01*
X87843603Y-92899046D01*
X87775000Y-92830444D01*
X87775000Y-89038063D01*
X87778749Y-89000000D01*
X87775000Y-88961935D01*
X87763786Y-88848074D01*
X87729784Y-88735987D01*
X87719470Y-88701985D01*
X87647506Y-88567349D01*
X87574924Y-88478908D01*
X87574923Y-88478907D01*
X87550659Y-88449341D01*
X87521093Y-88425077D01*
X87025000Y-87928985D01*
X87025000Y-87899046D01*
X86985610Y-87701018D01*
X86908344Y-87514480D01*
X86796170Y-87346600D01*
X86653400Y-87203830D01*
X86485520Y-87091656D01*
X86298982Y-87014390D01*
X86100954Y-86975000D01*
X85899046Y-86975000D01*
X85701018Y-87014390D01*
X85514480Y-87091656D01*
X85346600Y-87203830D01*
X85203830Y-87346600D01*
X85091656Y-87514480D01*
X85014390Y-87701018D01*
X84975000Y-87899046D01*
X84975000Y-88100954D01*
X85014390Y-88298982D01*
X85091656Y-88485520D01*
X85203830Y-88653400D01*
X85346600Y-88796170D01*
X85514480Y-88908344D01*
X85701018Y-88985610D01*
X85899046Y-89025000D01*
X85928985Y-89025000D01*
X86225000Y-89321016D01*
X86225000Y-89499674D01*
X86100954Y-89475000D01*
X85899046Y-89475000D01*
X85701018Y-89514390D01*
X85514480Y-89591656D01*
X85346600Y-89703830D01*
X85203830Y-89846600D01*
X85091656Y-90014480D01*
X85014390Y-90201018D01*
X84975000Y-90399046D01*
X84975000Y-90428986D01*
X84628913Y-90775073D01*
X84599341Y-90799342D01*
X84544955Y-90865612D01*
X84502493Y-90917351D01*
X84430530Y-91051987D01*
X84386214Y-91198075D01*
X84371250Y-91350001D01*
X63150000Y-91350001D01*
X63150000Y-84839951D01*
X75875000Y-84839951D01*
X75875000Y-85160049D01*
X75937448Y-85473995D01*
X76059943Y-85769726D01*
X76237780Y-86035877D01*
X76464123Y-86262220D01*
X76730274Y-86440057D01*
X77026005Y-86562552D01*
X77339951Y-86625000D01*
X77660049Y-86625000D01*
X77973995Y-86562552D01*
X78269726Y-86440057D01*
X78535877Y-86262220D01*
X78762220Y-86035877D01*
X78936533Y-85775000D01*
X80421937Y-85775000D01*
X80460000Y-85778749D01*
X80498063Y-85775000D01*
X80498065Y-85775000D01*
X80611926Y-85763786D01*
X80758014Y-85719470D01*
X80892650Y-85647506D01*
X81010659Y-85550659D01*
X81034932Y-85521082D01*
X82027991Y-84528024D01*
X82910000Y-84528024D01*
X83120312Y-84507310D01*
X83322542Y-84445964D01*
X83508918Y-84346344D01*
X83672278Y-84212278D01*
X83806344Y-84048918D01*
X83836265Y-83992941D01*
X84027869Y-84184545D01*
X84277642Y-84351438D01*
X84555174Y-84466395D01*
X84849801Y-84525000D01*
X85150199Y-84525000D01*
X85444826Y-84466395D01*
X85722358Y-84351438D01*
X85972131Y-84184545D01*
X86184545Y-83972131D01*
X86351438Y-83722358D01*
X86466395Y-83444826D01*
X86525000Y-83150199D01*
X86525000Y-82849801D01*
X86466395Y-82555174D01*
X86351438Y-82277642D01*
X86184545Y-82027869D01*
X85972131Y-81815455D01*
X85722358Y-81648562D01*
X85444826Y-81533605D01*
X85150199Y-81475000D01*
X84849801Y-81475000D01*
X84555174Y-81533605D01*
X84277642Y-81648562D01*
X84027869Y-81815455D01*
X83836265Y-82007059D01*
X83806344Y-81951082D01*
X83672278Y-81787722D01*
X83508918Y-81653656D01*
X83322542Y-81554036D01*
X83120312Y-81492690D01*
X82910000Y-81471976D01*
X82010000Y-81471976D01*
X81799688Y-81492690D01*
X81597458Y-81554036D01*
X81411082Y-81653656D01*
X81247722Y-81787722D01*
X81113656Y-81951082D01*
X81014036Y-82137458D01*
X80952690Y-82339688D01*
X80931976Y-82550000D01*
X80931976Y-83432009D01*
X80138986Y-84225000D01*
X78936533Y-84225000D01*
X78762220Y-83964123D01*
X78535877Y-83737780D01*
X78269726Y-83559943D01*
X77973995Y-83437448D01*
X77660049Y-83375000D01*
X77339951Y-83375000D01*
X77026005Y-83437448D01*
X76730274Y-83559943D01*
X76464123Y-83737780D01*
X76237780Y-83964123D01*
X76059943Y-84230274D01*
X75937448Y-84526005D01*
X75875000Y-84839951D01*
X63150000Y-84839951D01*
X63150000Y-82523555D01*
X63223440Y-81511404D01*
X63437128Y-80543522D01*
X63788299Y-79616623D01*
X64269594Y-78750128D01*
X64870934Y-77962185D01*
X65579721Y-77269299D01*
X66381098Y-76685995D01*
X67258292Y-76224482D01*
X68192919Y-75894430D01*
X69169037Y-75702039D01*
X70019866Y-75650000D01*
X129976445Y-75650000D01*
X130988596Y-75723440D01*
X130988596Y-75723440D01*
G37*
X130988596Y-75723440D02*
X131956478Y-75937128D01*
X132883377Y-76288299D01*
X133749872Y-76769594D01*
X134537815Y-77370934D01*
X135230701Y-78079721D01*
X135814005Y-78881098D01*
X136275518Y-79758292D01*
X136605570Y-80692919D01*
X136797961Y-81669037D01*
X136850000Y-82519866D01*
X136850001Y-142476432D01*
X136776560Y-143488596D01*
X136562872Y-144456478D01*
X136211702Y-145383375D01*
X135730405Y-146249873D01*
X135129069Y-147037813D01*
X134420279Y-147730701D01*
X133618902Y-148314005D01*
X132741708Y-148775518D01*
X131807080Y-149105570D01*
X130830963Y-149297961D01*
X129980134Y-149350000D01*
X70023554Y-149350000D01*
X69011404Y-149276560D01*
X68043522Y-149062872D01*
X67116625Y-148711702D01*
X66250127Y-148230405D01*
X65462187Y-147629069D01*
X64769299Y-146920279D01*
X64185995Y-146118902D01*
X63724482Y-145241708D01*
X63394430Y-144307080D01*
X63202039Y-143330963D01*
X63150000Y-142480134D01*
X63150000Y-139645617D01*
X78825000Y-139645617D01*
X78825000Y-141354384D01*
X78855749Y-141666573D01*
X78977259Y-142067137D01*
X79174580Y-142436299D01*
X79440129Y-142759872D01*
X79763702Y-143025421D01*
X80132864Y-143222742D01*
X80533428Y-143344252D01*
X80950000Y-143385281D01*
X81366573Y-143344252D01*
X81767137Y-143222742D01*
X82136299Y-143025421D01*
X82459872Y-142759872D01*
X82725421Y-142436299D01*
X82922742Y-142067137D01*
X83044252Y-141666572D01*
X83075000Y-141354383D01*
X83075000Y-140525000D01*
X86445000Y-140525000D01*
X86445000Y-141275000D01*
X86490709Y-141689087D01*
X86616324Y-142086300D01*
X86817017Y-142451374D01*
X87085077Y-142770280D01*
X87410201Y-143030762D01*
X87779896Y-143222811D01*
X88179954Y-143339046D01*
X88212908Y-143344782D01*
X88545000Y-143218591D01*
X88545000Y-140525000D01*
X88595000Y-140525000D01*
X88595000Y-143218591D01*
X88927092Y-143344782D01*
X88960046Y-143339046D01*
X89360104Y-143222811D01*
X89729799Y-143030762D01*
X90054923Y-142770280D01*
X90322983Y-142451374D01*
X90523676Y-142086300D01*
X90649291Y-141689087D01*
X90695000Y-141275000D01*
X90695000Y-140525000D01*
X88595000Y-140525000D01*
X88545000Y-140525000D01*
X86445000Y-140525000D01*
X83075000Y-140525000D01*
X83075000Y-139725000D01*
X86445000Y-139725000D01*
X86445000Y-140475000D01*
X88545000Y-140475000D01*
X88545000Y-137781409D01*
X88595000Y-137781409D01*
X88595000Y-140475000D01*
X90695000Y-140475000D01*
X90695000Y-139725000D01*
X90686238Y-139645617D01*
X94065000Y-139645617D01*
X94065000Y-141354384D01*
X94095749Y-141666573D01*
X94217259Y-142067137D01*
X94414580Y-142436299D01*
X94680129Y-142759872D01*
X95003702Y-143025421D01*
X95372864Y-143222742D01*
X95773428Y-143344252D01*
X96190000Y-143385281D01*
X96606573Y-143344252D01*
X97007137Y-143222742D01*
X97376299Y-143025421D01*
X97699872Y-142759872D01*
X97965421Y-142436299D01*
X98162742Y-142067137D01*
X98284252Y-141666572D01*
X98315000Y-141354383D01*
X98315000Y-140525000D01*
X101685000Y-140525000D01*
X101685000Y-141275000D01*
X101730709Y-141689087D01*
X101856324Y-142086300D01*
X102057017Y-142451374D01*
X102325077Y-142770280D01*
X102650201Y-143030762D01*
X103019896Y-143222811D01*
X103419954Y-143339046D01*
X103452908Y-143344782D01*
X103785000Y-143218591D01*
X103785000Y-140525000D01*
X103835000Y-140525000D01*
X103835000Y-143218591D01*
X104167092Y-143344782D01*
X104200046Y-143339046D01*
X104600104Y-143222811D01*
X104969799Y-143030762D01*
X105294923Y-142770280D01*
X105562983Y-142451374D01*
X105763676Y-142086300D01*
X105889291Y-141689087D01*
X105935000Y-141275000D01*
X105935000Y-140525000D01*
X103835000Y-140525000D01*
X103785000Y-140525000D01*
X101685000Y-140525000D01*
X98315000Y-140525000D01*
X98315000Y-139725000D01*
X101685000Y-139725000D01*
X101685000Y-140475000D01*
X103785000Y-140475000D01*
X103785000Y-137781409D01*
X103835000Y-137781409D01*
X103835000Y-140475000D01*
X105935000Y-140475000D01*
X105935000Y-139725000D01*
X105926238Y-139645617D01*
X109305000Y-139645617D01*
X109305000Y-141354384D01*
X109335749Y-141666573D01*
X109457259Y-142067137D01*
X109654580Y-142436299D01*
X109920129Y-142759872D01*
X110243702Y-143025421D01*
X110612864Y-143222742D01*
X111013428Y-143344252D01*
X111430000Y-143385281D01*
X111846573Y-143344252D01*
X112247137Y-143222742D01*
X112616299Y-143025421D01*
X112939872Y-142759872D01*
X113205421Y-142436299D01*
X113402742Y-142067137D01*
X113524252Y-141666572D01*
X113555000Y-141354383D01*
X113555000Y-139645617D01*
X116925000Y-139645617D01*
X116925000Y-141354384D01*
X116955749Y-141666573D01*
X117077259Y-142067137D01*
X117274580Y-142436299D01*
X117540129Y-142759872D01*
X117863702Y-143025421D01*
X118232864Y-143222742D01*
X118633428Y-143344252D01*
X119050000Y-143385281D01*
X119466573Y-143344252D01*
X119867137Y-143222742D01*
X120236299Y-143025421D01*
X120559872Y-142759872D01*
X120825421Y-142436299D01*
X121022742Y-142067137D01*
X121144252Y-141666572D01*
X121175000Y-141354383D01*
X121175000Y-139645616D01*
X121144252Y-139333427D01*
X121022742Y-138932863D01*
X120825421Y-138563701D01*
X120559872Y-138240128D01*
X120236299Y-137974579D01*
X119867136Y-137777258D01*
X119466572Y-137655748D01*
X119050000Y-137614719D01*
X118633427Y-137655748D01*
X118232863Y-137777258D01*
X117863701Y-137974579D01*
X117540128Y-138240128D01*
X117274579Y-138563701D01*
X117077258Y-138932864D01*
X116955748Y-139333428D01*
X116925000Y-139645617D01*
X113555000Y-139645617D01*
X113555000Y-139645616D01*
X113524252Y-139333427D01*
X113402742Y-138932863D01*
X113205421Y-138563701D01*
X112939872Y-138240128D01*
X112616299Y-137974579D01*
X112247136Y-137777258D01*
X111846572Y-137655748D01*
X111430000Y-137614719D01*
X111013427Y-137655748D01*
X110612863Y-137777258D01*
X110243701Y-137974579D01*
X109920128Y-138240128D01*
X109654579Y-138563701D01*
X109457258Y-138932864D01*
X109335748Y-139333428D01*
X109305000Y-139645617D01*
X105926238Y-139645617D01*
X105889291Y-139310913D01*
X105763676Y-138913700D01*
X105562983Y-138548626D01*
X105294923Y-138229720D01*
X104969799Y-137969238D01*
X104600104Y-137777189D01*
X104200046Y-137660954D01*
X104167092Y-137655218D01*
X103835000Y-137781409D01*
X103785000Y-137781409D01*
X103452908Y-137655218D01*
X103419954Y-137660954D01*
X103019896Y-137777189D01*
X102650201Y-137969238D01*
X102325077Y-138229720D01*
X102057017Y-138548626D01*
X101856324Y-138913700D01*
X101730709Y-139310913D01*
X101685000Y-139725000D01*
X98315000Y-139725000D01*
X98315000Y-139645616D01*
X98284252Y-139333427D01*
X98162742Y-138932863D01*
X97965421Y-138563701D01*
X97699872Y-138240128D01*
X97376299Y-137974579D01*
X97007136Y-137777258D01*
X96606572Y-137655748D01*
X96190000Y-137614719D01*
X95773427Y-137655748D01*
X95372863Y-137777258D01*
X95003701Y-137974579D01*
X94680128Y-138240128D01*
X94414579Y-138563701D01*
X94217258Y-138932864D01*
X94095748Y-139333428D01*
X94065000Y-139645617D01*
X90686238Y-139645617D01*
X90649291Y-139310913D01*
X90523676Y-138913700D01*
X90322983Y-138548626D01*
X90054923Y-138229720D01*
X89729799Y-137969238D01*
X89360104Y-137777189D01*
X88960046Y-137660954D01*
X88927092Y-137655218D01*
X88595000Y-137781409D01*
X88545000Y-137781409D01*
X88212908Y-137655218D01*
X88179954Y-137660954D01*
X87779896Y-137777189D01*
X87410201Y-137969238D01*
X87085077Y-138229720D01*
X86817017Y-138548626D01*
X86616324Y-138913700D01*
X86490709Y-139310913D01*
X86445000Y-139725000D01*
X83075000Y-139725000D01*
X83075000Y-139645616D01*
X83044252Y-139333427D01*
X82922742Y-138932863D01*
X82725421Y-138563701D01*
X82459872Y-138240128D01*
X82136299Y-137974579D01*
X81767136Y-137777258D01*
X81366572Y-137655748D01*
X80950000Y-137614719D01*
X80533427Y-137655748D01*
X80132863Y-137777258D01*
X79763701Y-137974579D01*
X79440128Y-138240128D01*
X79174579Y-138563701D01*
X78977258Y-138932864D01*
X78855748Y-139333428D01*
X78825000Y-139645617D01*
X63150000Y-139645617D01*
X63150000Y-132399046D01*
X75975000Y-132399046D01*
X75975000Y-132600954D01*
X76014390Y-132798982D01*
X76091656Y-132985520D01*
X76203830Y-133153400D01*
X76346600Y-133296170D01*
X76514480Y-133408344D01*
X76701018Y-133485610D01*
X76899046Y-133525000D01*
X77100954Y-133525000D01*
X77298982Y-133485610D01*
X77485520Y-133408344D01*
X77653400Y-133296170D01*
X77796170Y-133153400D01*
X77908344Y-132985520D01*
X77985610Y-132798982D01*
X78025000Y-132600954D01*
X78025000Y-132571717D01*
X78050659Y-132550659D01*
X78123962Y-132461339D01*
X78147506Y-132432651D01*
X78185971Y-132360687D01*
X78219470Y-132298014D01*
X78263786Y-132151926D01*
X78275000Y-132038065D01*
X78275000Y-132038063D01*
X78278749Y-132000000D01*
X78275000Y-131961937D01*
X78275000Y-109931250D01*
X85125000Y-109931250D01*
X85125000Y-110961557D01*
X85149018Y-111082306D01*
X85196132Y-111196049D01*
X85264531Y-111298414D01*
X85351586Y-111385469D01*
X85453952Y-111453868D01*
X85567694Y-111500982D01*
X85688443Y-111525000D01*
X86118750Y-111525000D01*
X86275000Y-111368750D01*
X86275000Y-109775000D01*
X86325000Y-109775000D01*
X86325000Y-111368750D01*
X86481250Y-111525000D01*
X86911557Y-111525000D01*
X87032306Y-111500982D01*
X87146048Y-111453868D01*
X87150000Y-111451227D01*
X87153952Y-111453868D01*
X87267694Y-111500982D01*
X87388443Y-111525000D01*
X87818750Y-111525000D01*
X87975000Y-111368750D01*
X87975000Y-109775000D01*
X88025000Y-109775000D01*
X88025000Y-111368750D01*
X88181250Y-111525000D01*
X88611557Y-111525000D01*
X88732306Y-111500982D01*
X88846048Y-111453868D01*
X88850000Y-111451227D01*
X88853952Y-111453868D01*
X88967694Y-111500982D01*
X89088443Y-111525000D01*
X89518750Y-111525000D01*
X89675000Y-111368750D01*
X89675000Y-109775000D01*
X89725000Y-109775000D01*
X89725000Y-111368750D01*
X89881250Y-111525000D01*
X90311557Y-111525000D01*
X90432306Y-111500982D01*
X90546048Y-111453868D01*
X90648414Y-111385469D01*
X90735469Y-111298414D01*
X90803868Y-111196049D01*
X90850982Y-111082306D01*
X90875000Y-110961557D01*
X90875000Y-109931250D01*
X90718750Y-109775000D01*
X89725000Y-109775000D01*
X89675000Y-109775000D01*
X88025000Y-109775000D01*
X87975000Y-109775000D01*
X86325000Y-109775000D01*
X86275000Y-109775000D01*
X85281250Y-109775000D01*
X85125000Y-109931250D01*
X78275000Y-109931250D01*
X78275000Y-109821014D01*
X79557571Y-108538443D01*
X85125000Y-108538443D01*
X85125000Y-109568750D01*
X85281250Y-109725000D01*
X86275000Y-109725000D01*
X86275000Y-108131250D01*
X86325000Y-108131250D01*
X86325000Y-109725000D01*
X87975000Y-109725000D01*
X87975000Y-108131250D01*
X88025000Y-108131250D01*
X88025000Y-109725000D01*
X89675000Y-109725000D01*
X89675000Y-108131250D01*
X89725000Y-108131250D01*
X89725000Y-109725000D01*
X90718750Y-109725000D01*
X90875000Y-109568750D01*
X90875000Y-108538443D01*
X90850982Y-108417694D01*
X90803868Y-108303951D01*
X90735469Y-108201586D01*
X90648414Y-108114531D01*
X90546048Y-108046132D01*
X90432306Y-107999018D01*
X90311557Y-107975000D01*
X89881250Y-107975000D01*
X89725000Y-108131250D01*
X89675000Y-108131250D01*
X89518750Y-107975000D01*
X89088443Y-107975000D01*
X88967694Y-107999018D01*
X88853952Y-108046132D01*
X88850000Y-108048773D01*
X88846048Y-108046132D01*
X88732306Y-107999018D01*
X88611557Y-107975000D01*
X88181250Y-107975000D01*
X88025000Y-108131250D01*
X87975000Y-108131250D01*
X87818750Y-107975000D01*
X87388443Y-107975000D01*
X87267694Y-107999018D01*
X87153952Y-108046132D01*
X87150000Y-108048773D01*
X87146048Y-108046132D01*
X87032306Y-107999018D01*
X86911557Y-107975000D01*
X86481250Y-107975000D01*
X86325000Y-108131250D01*
X86275000Y-108131250D01*
X86118750Y-107975000D01*
X85688443Y-107975000D01*
X85567694Y-107999018D01*
X85453952Y-108046132D01*
X85351586Y-108114531D01*
X85264531Y-108201586D01*
X85196132Y-108303951D01*
X85149018Y-108417694D01*
X85125000Y-108538443D01*
X79557571Y-108538443D01*
X80321015Y-107775000D01*
X90961937Y-107775000D01*
X91000000Y-107778749D01*
X91038063Y-107775000D01*
X91038065Y-107775000D01*
X91151926Y-107763786D01*
X91298014Y-107719470D01*
X91432650Y-107647506D01*
X91550659Y-107550659D01*
X91574932Y-107521082D01*
X93021087Y-106074928D01*
X93050659Y-106050659D01*
X93147506Y-105932650D01*
X93219470Y-105798014D01*
X93263786Y-105651926D01*
X93275000Y-105538065D01*
X93275000Y-105538064D01*
X93278749Y-105500001D01*
X93275000Y-105461938D01*
X93275000Y-103061651D01*
X118473705Y-103061651D01*
X118560565Y-103335554D01*
X118839169Y-103493166D01*
X119143168Y-103593397D01*
X119460881Y-103632395D01*
X119780097Y-103608660D01*
X120088549Y-103523107D01*
X120374383Y-103379020D01*
X120439435Y-103335554D01*
X120526295Y-103061651D01*
X124973705Y-103061651D01*
X125060565Y-103335554D01*
X125339169Y-103493166D01*
X125643168Y-103593397D01*
X125960881Y-103632395D01*
X126280097Y-103608660D01*
X126588549Y-103523107D01*
X126874383Y-103379020D01*
X126939435Y-103335554D01*
X127026295Y-103061651D01*
X126000000Y-102035355D01*
X124973705Y-103061651D01*
X120526295Y-103061651D01*
X119500000Y-102035355D01*
X118473705Y-103061651D01*
X93275000Y-103061651D01*
X93275000Y-101960881D01*
X117867605Y-101960881D01*
X117891340Y-102280097D01*
X117976893Y-102588549D01*
X118120980Y-102874383D01*
X118164446Y-102939435D01*
X118438349Y-103026295D01*
X119464645Y-102000000D01*
X119535355Y-102000000D01*
X120561651Y-103026295D01*
X120835554Y-102939435D01*
X120993166Y-102660831D01*
X121093397Y-102356832D01*
X121132395Y-102039119D01*
X121126578Y-101960881D01*
X124367605Y-101960881D01*
X124391340Y-102280097D01*
X124476893Y-102588549D01*
X124620980Y-102874383D01*
X124664446Y-102939435D01*
X124938349Y-103026295D01*
X125964645Y-102000000D01*
X126035355Y-102000000D01*
X127061651Y-103026295D01*
X127335554Y-102939435D01*
X127493166Y-102660831D01*
X127593397Y-102356832D01*
X127632395Y-102039119D01*
X127608660Y-101719903D01*
X127523107Y-101411451D01*
X127379020Y-101125617D01*
X127335554Y-101060565D01*
X127061651Y-100973705D01*
X126035355Y-102000000D01*
X125964645Y-102000000D01*
X124938349Y-100973705D01*
X124664446Y-101060565D01*
X124506834Y-101339169D01*
X124406603Y-101643168D01*
X124367605Y-101960881D01*
X121126578Y-101960881D01*
X121108660Y-101719903D01*
X121023107Y-101411451D01*
X120879020Y-101125617D01*
X120835554Y-101060565D01*
X120561651Y-100973705D01*
X119535355Y-102000000D01*
X119464645Y-102000000D01*
X118438349Y-100973705D01*
X118164446Y-101060565D01*
X118006834Y-101339169D01*
X117906603Y-101643168D01*
X117867605Y-101960881D01*
X93275000Y-101960881D01*
X93275000Y-100938349D01*
X118473705Y-100938349D01*
X119500000Y-101964645D01*
X120526295Y-100938349D01*
X124973705Y-100938349D01*
X126000000Y-101964645D01*
X127026295Y-100938349D01*
X126939435Y-100664446D01*
X126660831Y-100506834D01*
X126356832Y-100406603D01*
X126039119Y-100367605D01*
X125719903Y-100391340D01*
X125411451Y-100476893D01*
X125125617Y-100620980D01*
X125060565Y-100664446D01*
X124973705Y-100938349D01*
X120526295Y-100938349D01*
X120439435Y-100664446D01*
X120160831Y-100506834D01*
X119856832Y-100406603D01*
X119539119Y-100367605D01*
X119219903Y-100391340D01*
X118911451Y-100476893D01*
X118625617Y-100620980D01*
X118560565Y-100664446D01*
X118473705Y-100938349D01*
X93275000Y-100938349D01*
X93275000Y-97339951D01*
X117875000Y-97339951D01*
X117875000Y-97660049D01*
X117937448Y-97973995D01*
X118059943Y-98269726D01*
X118237780Y-98535877D01*
X118464123Y-98762220D01*
X118730274Y-98940057D01*
X119026005Y-99062552D01*
X119339951Y-99125000D01*
X119660049Y-99125000D01*
X119973995Y-99062552D01*
X120269726Y-98940057D01*
X120535877Y-98762220D01*
X120762220Y-98535877D01*
X120936533Y-98275000D01*
X124563467Y-98275000D01*
X124737780Y-98535877D01*
X124964123Y-98762220D01*
X125230274Y-98940057D01*
X125526005Y-99062552D01*
X125839951Y-99125000D01*
X126160049Y-99125000D01*
X126473995Y-99062552D01*
X126769726Y-98940057D01*
X127035877Y-98762220D01*
X127262220Y-98535877D01*
X127440057Y-98269726D01*
X127562552Y-97973995D01*
X127625000Y-97660049D01*
X127625000Y-97339951D01*
X127562552Y-97026005D01*
X127440057Y-96730274D01*
X127262220Y-96464123D01*
X127035877Y-96237780D01*
X126769726Y-96059943D01*
X126473995Y-95937448D01*
X126160049Y-95875000D01*
X125839951Y-95875000D01*
X125526005Y-95937448D01*
X125230274Y-96059943D01*
X124964123Y-96237780D01*
X124737780Y-96464123D01*
X124563467Y-96725000D01*
X120936533Y-96725000D01*
X120762220Y-96464123D01*
X120535877Y-96237780D01*
X120269726Y-96059943D01*
X119973995Y-95937448D01*
X119660049Y-95875000D01*
X119339951Y-95875000D01*
X119026005Y-95937448D01*
X118730274Y-96059943D01*
X118464123Y-96237780D01*
X118237780Y-96464123D01*
X118059943Y-96730274D01*
X117937448Y-97026005D01*
X117875000Y-97339951D01*
X93275000Y-97339951D01*
X93275000Y-94061651D01*
X118473705Y-94061651D01*
X118560565Y-94335554D01*
X118839169Y-94493166D01*
X119143168Y-94593397D01*
X119460881Y-94632395D01*
X119780097Y-94608660D01*
X120088549Y-94523107D01*
X120374383Y-94379020D01*
X120439435Y-94335554D01*
X120526295Y-94061651D01*
X124973705Y-94061651D01*
X125060565Y-94335554D01*
X125339169Y-94493166D01*
X125643168Y-94593397D01*
X125960881Y-94632395D01*
X126280097Y-94608660D01*
X126588549Y-94523107D01*
X126874383Y-94379020D01*
X126939435Y-94335554D01*
X127026295Y-94061651D01*
X126000000Y-93035355D01*
X124973705Y-94061651D01*
X120526295Y-94061651D01*
X119500000Y-93035355D01*
X118473705Y-94061651D01*
X93275000Y-94061651D01*
X93275000Y-93321014D01*
X93635133Y-92960881D01*
X117867605Y-92960881D01*
X117891340Y-93280097D01*
X117976893Y-93588549D01*
X118120980Y-93874383D01*
X118164446Y-93939435D01*
X118438349Y-94026295D01*
X119464645Y-93000000D01*
X119535355Y-93000000D01*
X120561651Y-94026295D01*
X120835554Y-93939435D01*
X120993166Y-93660831D01*
X121093397Y-93356832D01*
X121132395Y-93039119D01*
X121126578Y-92960881D01*
X124367605Y-92960881D01*
X124391340Y-93280097D01*
X124476893Y-93588549D01*
X124620980Y-93874383D01*
X124664446Y-93939435D01*
X124938349Y-94026295D01*
X125964645Y-93000000D01*
X126035355Y-93000000D01*
X127061651Y-94026295D01*
X127335554Y-93939435D01*
X127493166Y-93660831D01*
X127593397Y-93356832D01*
X127632395Y-93039119D01*
X127608660Y-92719903D01*
X127523107Y-92411451D01*
X127379020Y-92125617D01*
X127335554Y-92060565D01*
X127061651Y-91973705D01*
X126035355Y-93000000D01*
X125964645Y-93000000D01*
X124938349Y-91973705D01*
X124664446Y-92060565D01*
X124506834Y-92339169D01*
X124406603Y-92643168D01*
X124367605Y-92960881D01*
X121126578Y-92960881D01*
X121108660Y-92719903D01*
X121023107Y-92411451D01*
X120879020Y-92125617D01*
X120835554Y-92060565D01*
X120561651Y-91973705D01*
X119535355Y-93000000D01*
X119464645Y-93000000D01*
X118438349Y-91973705D01*
X118164446Y-92060565D01*
X118006834Y-92339169D01*
X117906603Y-92643168D01*
X117867605Y-92960881D01*
X93635133Y-92960881D01*
X96805309Y-89790706D01*
X97875000Y-89790706D01*
X97875000Y-90209294D01*
X97956663Y-90619840D01*
X98116849Y-91006565D01*
X98349405Y-91354609D01*
X98645391Y-91650595D01*
X98993435Y-91883151D01*
X99380160Y-92043337D01*
X99790706Y-92125000D01*
X100209294Y-92125000D01*
X100619840Y-92043337D01*
X100873304Y-91938349D01*
X118473705Y-91938349D01*
X119500000Y-92964645D01*
X120526295Y-91938349D01*
X124973705Y-91938349D01*
X126000000Y-92964645D01*
X127026295Y-91938349D01*
X126939435Y-91664446D01*
X126660831Y-91506834D01*
X126356832Y-91406603D01*
X126039119Y-91367605D01*
X125719903Y-91391340D01*
X125411451Y-91476893D01*
X125125617Y-91620980D01*
X125060565Y-91664446D01*
X124973705Y-91938349D01*
X120526295Y-91938349D01*
X120439435Y-91664446D01*
X120160831Y-91506834D01*
X119856832Y-91406603D01*
X119539119Y-91367605D01*
X119219903Y-91391340D01*
X118911451Y-91476893D01*
X118625617Y-91620980D01*
X118560565Y-91664446D01*
X118473705Y-91938349D01*
X100873304Y-91938349D01*
X101006565Y-91883151D01*
X101354609Y-91650595D01*
X101650595Y-91354609D01*
X101883151Y-91006565D01*
X102043337Y-90619840D01*
X102125000Y-90209294D01*
X102125000Y-89790706D01*
X102043337Y-89380160D01*
X101968131Y-89198595D01*
X102554711Y-88612015D01*
X102586185Y-88586185D01*
X102689281Y-88460563D01*
X102753749Y-88339951D01*
X117875000Y-88339951D01*
X117875000Y-88660049D01*
X117937448Y-88973995D01*
X118059943Y-89269726D01*
X118237780Y-89535877D01*
X118464123Y-89762220D01*
X118730274Y-89940057D01*
X119026005Y-90062552D01*
X119339951Y-90125000D01*
X119660049Y-90125000D01*
X119973995Y-90062552D01*
X120269726Y-89940057D01*
X120535877Y-89762220D01*
X120762220Y-89535877D01*
X120936533Y-89275000D01*
X124563467Y-89275000D01*
X124737780Y-89535877D01*
X124964123Y-89762220D01*
X125230274Y-89940057D01*
X125526005Y-90062552D01*
X125839951Y-90125000D01*
X126160049Y-90125000D01*
X126473995Y-90062552D01*
X126769726Y-89940057D01*
X127035877Y-89762220D01*
X127262220Y-89535877D01*
X127440057Y-89269726D01*
X127562552Y-88973995D01*
X127625000Y-88660049D01*
X127625000Y-88339951D01*
X127562552Y-88026005D01*
X127440057Y-87730274D01*
X127262220Y-87464123D01*
X127035877Y-87237780D01*
X126769726Y-87059943D01*
X126473995Y-86937448D01*
X126160049Y-86875000D01*
X125839951Y-86875000D01*
X125526005Y-86937448D01*
X125230274Y-87059943D01*
X124964123Y-87237780D01*
X124737780Y-87464123D01*
X124563467Y-87725000D01*
X120936533Y-87725000D01*
X120762220Y-87464123D01*
X120535877Y-87237780D01*
X120269726Y-87059943D01*
X119973995Y-86937448D01*
X119660049Y-86875000D01*
X119339951Y-86875000D01*
X119026005Y-86937448D01*
X118730274Y-87059943D01*
X118464123Y-87237780D01*
X118237780Y-87464123D01*
X118059943Y-87730274D01*
X117937448Y-88026005D01*
X117875000Y-88339951D01*
X102753749Y-88339951D01*
X102765888Y-88317241D01*
X102813062Y-88161728D01*
X102825000Y-88040521D01*
X102825000Y-88040514D01*
X102828990Y-88000001D01*
X102825000Y-87959488D01*
X102825000Y-80110253D01*
X102908344Y-79985520D01*
X102985610Y-79798982D01*
X103025000Y-79600954D01*
X103025000Y-79399046D01*
X102985610Y-79201018D01*
X102908344Y-79014480D01*
X102796170Y-78846600D01*
X102653400Y-78703830D01*
X102485520Y-78591656D01*
X102298982Y-78514390D01*
X102100954Y-78475000D01*
X101899046Y-78475000D01*
X101701018Y-78514390D01*
X101514480Y-78591656D01*
X101346600Y-78703830D01*
X101203830Y-78846600D01*
X101091656Y-79014480D01*
X101014390Y-79201018D01*
X100975000Y-79399046D01*
X100975000Y-79600954D01*
X101014390Y-79798982D01*
X101091656Y-79985520D01*
X101175001Y-80110254D01*
X101175000Y-87040520D01*
X101175001Y-87040529D01*
X101175000Y-87658274D01*
X100801405Y-88031869D01*
X100619840Y-87956663D01*
X100209294Y-87875000D01*
X99790706Y-87875000D01*
X99380160Y-87956663D01*
X98993435Y-88116849D01*
X98645391Y-88349405D01*
X98349405Y-88645391D01*
X98116849Y-88993435D01*
X97956663Y-89380160D01*
X97875000Y-89790706D01*
X96805309Y-89790706D01*
X98071016Y-88525000D01*
X98100954Y-88525000D01*
X98298982Y-88485610D01*
X98485520Y-88408344D01*
X98653400Y-88296170D01*
X98796170Y-88153400D01*
X98908344Y-87985520D01*
X98985610Y-87798982D01*
X99025000Y-87600954D01*
X99025000Y-87399046D01*
X98985610Y-87201018D01*
X98908344Y-87014480D01*
X98796170Y-86846600D01*
X98653400Y-86703830D01*
X98485520Y-86591656D01*
X98298982Y-86514390D01*
X98100954Y-86475000D01*
X97899046Y-86475000D01*
X97701018Y-86514390D01*
X97514480Y-86591656D01*
X97346600Y-86703830D01*
X97203830Y-86846600D01*
X97091656Y-87014480D01*
X97014390Y-87201018D01*
X96975000Y-87399046D01*
X96975000Y-87428984D01*
X91978918Y-92425068D01*
X91949341Y-92449341D01*
X91904524Y-92503952D01*
X91852494Y-92567350D01*
X91847585Y-92576535D01*
X91780530Y-92701987D01*
X91736214Y-92848075D01*
X91731194Y-92899046D01*
X91721251Y-93000000D01*
X91725000Y-93038063D01*
X91725001Y-105178984D01*
X90678986Y-106225000D01*
X80038063Y-106225000D01*
X80000000Y-106221251D01*
X79961937Y-106225000D01*
X79961935Y-106225000D01*
X79848074Y-106236214D01*
X79701986Y-106280530D01*
X79639313Y-106314029D01*
X79567349Y-106352494D01*
X79524888Y-106387342D01*
X79449341Y-106449341D01*
X79425072Y-106478913D01*
X76978918Y-108925068D01*
X76949341Y-108949341D01*
X76878121Y-109036125D01*
X76852494Y-109067350D01*
X76814029Y-109139314D01*
X76780530Y-109201987D01*
X76736214Y-109348075D01*
X76725000Y-109461935D01*
X76721251Y-109500000D01*
X76725000Y-109538063D01*
X76725001Y-127461935D01*
X76725000Y-131509620D01*
X76701018Y-131514390D01*
X76514480Y-131591656D01*
X76346600Y-131703830D01*
X76203830Y-131846600D01*
X76091656Y-132014480D01*
X76014390Y-132201018D01*
X75975000Y-132399046D01*
X63150000Y-132399046D01*
X63150000Y-96962798D01*
X69721251Y-96962798D01*
X69725001Y-97000871D01*
X69725000Y-99461937D01*
X69721251Y-99500000D01*
X69725000Y-99538063D01*
X69725000Y-99538064D01*
X69736214Y-99651925D01*
X69780530Y-99798013D01*
X69780531Y-99798014D01*
X69852494Y-99932650D01*
X69878121Y-99963875D01*
X69949341Y-100050659D01*
X69978918Y-100074932D01*
X70465072Y-100561087D01*
X70489341Y-100590659D01*
X70607350Y-100687506D01*
X70741986Y-100759470D01*
X70888074Y-100803786D01*
X71001935Y-100815000D01*
X71001936Y-100815000D01*
X71039999Y-100818749D01*
X71078062Y-100815000D01*
X71226341Y-100815000D01*
X71256286Y-100871023D01*
X71442308Y-101097692D01*
X71668977Y-101283714D01*
X71718155Y-101310000D01*
X71668977Y-101336286D01*
X71442308Y-101522308D01*
X71256286Y-101748977D01*
X71118059Y-102007581D01*
X71032939Y-102288184D01*
X71004198Y-102580000D01*
X71032939Y-102871816D01*
X71118059Y-103152419D01*
X71256286Y-103411023D01*
X71442308Y-103637692D01*
X71668977Y-103823714D01*
X71927581Y-103961941D01*
X72208184Y-104047061D01*
X72426876Y-104068600D01*
X72573124Y-104068600D01*
X72791816Y-104047061D01*
X73072419Y-103961941D01*
X73331023Y-103823714D01*
X73557692Y-103637692D01*
X73743714Y-103411023D01*
X73772734Y-103356731D01*
X73784000Y-103378999D01*
X73964011Y-103608680D01*
X74185371Y-103798829D01*
X74439574Y-103942139D01*
X74716851Y-104033103D01*
X74782472Y-104046155D01*
X75015000Y-103912115D01*
X75015000Y-102605000D01*
X75065000Y-102605000D01*
X75065000Y-103912115D01*
X75297528Y-104046155D01*
X75363149Y-104033103D01*
X75640426Y-103942139D01*
X75894629Y-103798829D01*
X76115989Y-103608680D01*
X76296000Y-103378999D01*
X76427743Y-103118613D01*
X76506156Y-102837528D01*
X76372141Y-102605000D01*
X75065000Y-102605000D01*
X75015000Y-102605000D01*
X74995000Y-102605000D01*
X74995000Y-102555000D01*
X75015000Y-102555000D01*
X75015000Y-102535000D01*
X75065000Y-102535000D01*
X75065000Y-102555000D01*
X76372141Y-102555000D01*
X76506156Y-102322472D01*
X76427743Y-102041387D01*
X76296000Y-101781001D01*
X76115989Y-101551320D01*
X75894629Y-101361171D01*
X75812614Y-101314934D01*
X75871023Y-101283714D01*
X76097692Y-101097692D01*
X76283714Y-100871023D01*
X76313659Y-100815000D01*
X76874781Y-100815000D01*
X77014480Y-100908344D01*
X77201018Y-100985610D01*
X77399046Y-101025000D01*
X77600954Y-101025000D01*
X77798982Y-100985610D01*
X77985520Y-100908344D01*
X78153400Y-100796170D01*
X78296170Y-100653400D01*
X78408344Y-100485520D01*
X78485610Y-100298982D01*
X78525000Y-100100954D01*
X78525000Y-99899046D01*
X78485610Y-99701018D01*
X78408344Y-99514480D01*
X78369529Y-99456389D01*
X78485520Y-99408344D01*
X78653400Y-99296170D01*
X78750000Y-99199570D01*
X78846600Y-99296170D01*
X79014480Y-99408344D01*
X79201018Y-99485610D01*
X79399046Y-99525000D01*
X79600954Y-99525000D01*
X79798982Y-99485610D01*
X79985520Y-99408344D01*
X80153400Y-99296170D01*
X80296170Y-99153400D01*
X80408344Y-98985520D01*
X80485610Y-98798982D01*
X80525000Y-98600954D01*
X80525000Y-98399046D01*
X80485610Y-98201018D01*
X80408344Y-98014480D01*
X80296170Y-97846600D01*
X80153400Y-97703830D01*
X79985520Y-97591656D01*
X79798982Y-97514390D01*
X79600954Y-97475000D01*
X79571016Y-97475000D01*
X76474923Y-94378909D01*
X76450650Y-94349332D01*
X76332641Y-94252485D01*
X76198005Y-94180521D01*
X76051917Y-94136205D01*
X75938056Y-94124991D01*
X75938054Y-94124991D01*
X75899991Y-94121242D01*
X75861928Y-94124991D01*
X72600870Y-94124991D01*
X72562807Y-94121242D01*
X72524744Y-94124991D01*
X72524742Y-94124991D01*
X72410881Y-94136205D01*
X72298794Y-94170207D01*
X72264792Y-94180521D01*
X72130156Y-94252485D01*
X72049328Y-94318819D01*
X72012148Y-94349332D01*
X71987883Y-94378899D01*
X69978914Y-96387870D01*
X69949342Y-96412139D01*
X69906680Y-96464123D01*
X69852494Y-96530148D01*
X69780531Y-96664784D01*
X69736215Y-96810872D01*
X69721251Y-96962798D01*
X63150000Y-96962798D01*
X63150000Y-91350001D01*
X84371250Y-91350001D01*
X84375000Y-91388074D01*
X84374999Y-93369938D01*
X84371250Y-93408001D01*
X84374999Y-93446064D01*
X84374999Y-93446065D01*
X84386213Y-93559926D01*
X84430529Y-93706014D01*
X84461408Y-93763785D01*
X84502493Y-93840651D01*
X84527341Y-93870928D01*
X84599340Y-93958660D01*
X84628917Y-93982933D01*
X86624991Y-95979008D01*
X86624990Y-101378995D01*
X85778914Y-102225072D01*
X85749342Y-102249341D01*
X85717465Y-102288184D01*
X85652494Y-102367350D01*
X85582892Y-102497568D01*
X85509666Y-102519781D01*
X85401089Y-102577817D01*
X85305920Y-102655920D01*
X85227817Y-102751089D01*
X85169781Y-102859666D01*
X85134043Y-102977479D01*
X85121976Y-103100000D01*
X85121976Y-105400000D01*
X85134043Y-105522521D01*
X85169781Y-105640334D01*
X85227817Y-105748911D01*
X85305920Y-105844080D01*
X85401089Y-105922183D01*
X85509666Y-105980219D01*
X85627479Y-106015957D01*
X85750000Y-106028024D01*
X86850000Y-106028024D01*
X86972521Y-106015957D01*
X87090334Y-105980219D01*
X87150000Y-105948327D01*
X87209666Y-105980219D01*
X87327479Y-106015957D01*
X87450000Y-106028024D01*
X88550000Y-106028024D01*
X88672521Y-106015957D01*
X88790334Y-105980219D01*
X88850000Y-105948327D01*
X88909666Y-105980219D01*
X89027479Y-106015957D01*
X89150000Y-106028024D01*
X90250000Y-106028024D01*
X90372521Y-106015957D01*
X90490334Y-105980219D01*
X90598911Y-105922183D01*
X90694080Y-105844080D01*
X90772183Y-105748911D01*
X90830219Y-105640334D01*
X90865957Y-105522521D01*
X90878024Y-105400000D01*
X90878024Y-103100000D01*
X90865957Y-102977479D01*
X90830219Y-102859666D01*
X90772183Y-102751089D01*
X90694080Y-102655920D01*
X90598911Y-102577817D01*
X90490334Y-102519781D01*
X90417109Y-102497568D01*
X90347507Y-102367351D01*
X90347506Y-102367349D01*
X90282536Y-102288184D01*
X90250659Y-102249341D01*
X90221088Y-102225073D01*
X89375010Y-101378996D01*
X89375010Y-94789531D01*
X89378759Y-94751468D01*
X89375010Y-94713403D01*
X89363796Y-94599542D01*
X89319480Y-94453454D01*
X89285981Y-94390781D01*
X89247516Y-94318817D01*
X89193078Y-94252485D01*
X89150669Y-94200809D01*
X89121098Y-94176541D01*
X87843603Y-92899046D01*
X89475000Y-92899046D01*
X89475000Y-93100954D01*
X89514390Y-93298982D01*
X89591656Y-93485520D01*
X89703830Y-93653400D01*
X89846600Y-93796170D01*
X90014480Y-93908344D01*
X90201018Y-93985610D01*
X90399046Y-94025000D01*
X90600954Y-94025000D01*
X90798982Y-93985610D01*
X90985520Y-93908344D01*
X91153400Y-93796170D01*
X91296170Y-93653400D01*
X91408344Y-93485520D01*
X91485610Y-93298982D01*
X91525000Y-93100954D01*
X91525000Y-92899046D01*
X91485610Y-92701018D01*
X91408344Y-92514480D01*
X91296170Y-92346600D01*
X91275000Y-92325430D01*
X91275000Y-92321014D01*
X91574923Y-92021091D01*
X99074923Y-84521092D01*
X99074927Y-84521087D01*
X99571015Y-84025000D01*
X99600954Y-84025000D01*
X99798982Y-83985610D01*
X99985520Y-83908344D01*
X100153400Y-83796170D01*
X100296170Y-83653400D01*
X100408344Y-83485520D01*
X100485610Y-83298982D01*
X100525000Y-83100954D01*
X100525000Y-82899046D01*
X100485610Y-82701018D01*
X100408344Y-82514480D01*
X100296170Y-82346600D01*
X100153400Y-82203830D01*
X99985520Y-82091656D01*
X99798982Y-82014390D01*
X99600954Y-81975000D01*
X99399046Y-81975000D01*
X99201018Y-82014390D01*
X99014480Y-82091656D01*
X98846600Y-82203830D01*
X98703830Y-82346600D01*
X98591656Y-82514480D01*
X98514390Y-82701018D01*
X98475000Y-82899046D01*
X98475000Y-82928985D01*
X97978913Y-83425073D01*
X97978908Y-83425077D01*
X90478909Y-90925077D01*
X89978914Y-91425072D01*
X89949342Y-91449341D01*
X89906186Y-91501927D01*
X89852494Y-91567350D01*
X89780531Y-91701986D01*
X89736215Y-91848074D01*
X89721251Y-92000000D01*
X89725001Y-92038072D01*
X89725001Y-92325429D01*
X89703830Y-92346600D01*
X89591656Y-92514480D01*
X89514390Y-92701018D01*
X89475000Y-92899046D01*
X87843603Y-92899046D01*
X87775000Y-92830444D01*
X87775000Y-89038063D01*
X87778749Y-89000000D01*
X87775000Y-88961935D01*
X87763786Y-88848074D01*
X87729784Y-88735987D01*
X87719470Y-88701985D01*
X87647506Y-88567349D01*
X87574924Y-88478908D01*
X87574923Y-88478907D01*
X87550659Y-88449341D01*
X87521093Y-88425077D01*
X87025000Y-87928985D01*
X87025000Y-87899046D01*
X86985610Y-87701018D01*
X86908344Y-87514480D01*
X86796170Y-87346600D01*
X86653400Y-87203830D01*
X86485520Y-87091656D01*
X86298982Y-87014390D01*
X86100954Y-86975000D01*
X85899046Y-86975000D01*
X85701018Y-87014390D01*
X85514480Y-87091656D01*
X85346600Y-87203830D01*
X85203830Y-87346600D01*
X85091656Y-87514480D01*
X85014390Y-87701018D01*
X84975000Y-87899046D01*
X84975000Y-88100954D01*
X85014390Y-88298982D01*
X85091656Y-88485520D01*
X85203830Y-88653400D01*
X85346600Y-88796170D01*
X85514480Y-88908344D01*
X85701018Y-88985610D01*
X85899046Y-89025000D01*
X85928985Y-89025000D01*
X86225000Y-89321016D01*
X86225000Y-89499674D01*
X86100954Y-89475000D01*
X85899046Y-89475000D01*
X85701018Y-89514390D01*
X85514480Y-89591656D01*
X85346600Y-89703830D01*
X85203830Y-89846600D01*
X85091656Y-90014480D01*
X85014390Y-90201018D01*
X84975000Y-90399046D01*
X84975000Y-90428986D01*
X84628913Y-90775073D01*
X84599341Y-90799342D01*
X84544955Y-90865612D01*
X84502493Y-90917351D01*
X84430530Y-91051987D01*
X84386214Y-91198075D01*
X84371250Y-91350001D01*
X63150000Y-91350001D01*
X63150000Y-84839951D01*
X75875000Y-84839951D01*
X75875000Y-85160049D01*
X75937448Y-85473995D01*
X76059943Y-85769726D01*
X76237780Y-86035877D01*
X76464123Y-86262220D01*
X76730274Y-86440057D01*
X77026005Y-86562552D01*
X77339951Y-86625000D01*
X77660049Y-86625000D01*
X77973995Y-86562552D01*
X78269726Y-86440057D01*
X78535877Y-86262220D01*
X78762220Y-86035877D01*
X78936533Y-85775000D01*
X80421937Y-85775000D01*
X80460000Y-85778749D01*
X80498063Y-85775000D01*
X80498065Y-85775000D01*
X80611926Y-85763786D01*
X80758014Y-85719470D01*
X80892650Y-85647506D01*
X81010659Y-85550659D01*
X81034932Y-85521082D01*
X82027991Y-84528024D01*
X82910000Y-84528024D01*
X83120312Y-84507310D01*
X83322542Y-84445964D01*
X83508918Y-84346344D01*
X83672278Y-84212278D01*
X83806344Y-84048918D01*
X83836265Y-83992941D01*
X84027869Y-84184545D01*
X84277642Y-84351438D01*
X84555174Y-84466395D01*
X84849801Y-84525000D01*
X85150199Y-84525000D01*
X85444826Y-84466395D01*
X85722358Y-84351438D01*
X85972131Y-84184545D01*
X86184545Y-83972131D01*
X86351438Y-83722358D01*
X86466395Y-83444826D01*
X86525000Y-83150199D01*
X86525000Y-82849801D01*
X86466395Y-82555174D01*
X86351438Y-82277642D01*
X86184545Y-82027869D01*
X85972131Y-81815455D01*
X85722358Y-81648562D01*
X85444826Y-81533605D01*
X85150199Y-81475000D01*
X84849801Y-81475000D01*
X84555174Y-81533605D01*
X84277642Y-81648562D01*
X84027869Y-81815455D01*
X83836265Y-82007059D01*
X83806344Y-81951082D01*
X83672278Y-81787722D01*
X83508918Y-81653656D01*
X83322542Y-81554036D01*
X83120312Y-81492690D01*
X82910000Y-81471976D01*
X82010000Y-81471976D01*
X81799688Y-81492690D01*
X81597458Y-81554036D01*
X81411082Y-81653656D01*
X81247722Y-81787722D01*
X81113656Y-81951082D01*
X81014036Y-82137458D01*
X80952690Y-82339688D01*
X80931976Y-82550000D01*
X80931976Y-83432009D01*
X80138986Y-84225000D01*
X78936533Y-84225000D01*
X78762220Y-83964123D01*
X78535877Y-83737780D01*
X78269726Y-83559943D01*
X77973995Y-83437448D01*
X77660049Y-83375000D01*
X77339951Y-83375000D01*
X77026005Y-83437448D01*
X76730274Y-83559943D01*
X76464123Y-83737780D01*
X76237780Y-83964123D01*
X76059943Y-84230274D01*
X75937448Y-84526005D01*
X75875000Y-84839951D01*
X63150000Y-84839951D01*
X63150000Y-82523555D01*
X63223440Y-81511404D01*
X63437128Y-80543522D01*
X63788299Y-79616623D01*
X64269594Y-78750128D01*
X64870934Y-77962185D01*
X65579721Y-77269299D01*
X66381098Y-76685995D01*
X67258292Y-76224482D01*
X68192919Y-75894430D01*
X69169037Y-75702039D01*
X70019866Y-75650000D01*
X129976445Y-75650000D01*
X130988596Y-75723440D01*
M02*
