M48
; DRILL file {KiCad (5.1.0-rc1)} date Wed 29 Jul 2020 07:39:16 PM MSK
; FORMAT={-:-/ absolute / metric / decimal}
; #@! TF.CreationDate,2020-07-29T19:39:16+03:00
; #@! TF.GenerationSoftware,Kicad,Pcbnew,(5.1.0-rc1)
FMAT,2
METRIC
T1C0.400
T2C0.500
T3C0.800
T4C0.900
T5C1.000
T6C1.016
T7C1.100
T8C1.500
T9C1.800
T10C3.400
%
G90
G05
T1
X70.0Y-123.0
X70.0Y-125.0
X71.0Y-105.0
X71.0Y-109.0
X72.0Y-123.0
X72.0Y-125.0
X73.0Y-107.0
X74.0Y-123.0
X74.0Y-125.0
X75.0Y-105.0
X76.0Y-109.0
X76.0Y-123.0
X76.0Y-125.0
X76.5Y-98.5
X77.0Y-132.5
X77.5Y-100.0
X78.0Y-98.5
X78.0Y-106.0
X79.0Y-119.0
X79.0Y-121.0
X79.0Y-123.0
X79.0Y-125.0
X79.5Y-98.5
X80.0Y-105.0
X80.0Y-109.0
X82.0Y-95.0
X82.0Y-100.0
X82.0Y-105.0
X82.0Y-108.0
X84.0Y-95.0
X86.0Y-88.0
X86.0Y-90.5
X86.0Y-93.0
X86.0Y-100.0
X89.5Y-78.5
X89.5Y-81.5
X89.5Y-85.0
X89.5Y-99.5
X90.5Y-89.5
X90.5Y-93.0
X91.0Y-78.5
X91.0Y-81.5
X91.5Y-85.0
X91.5Y-97.5
X92.5Y-78.5
X92.5Y-81.5
X93.5Y-96.5
X95.0Y-94.0
X96.0Y-84.5
X97.5Y-89.5
X97.5Y-96.5
X98.0Y-87.5
X98.0Y-144.0
X98.0Y-146.0
X99.5Y-78.0
X99.5Y-81.5
X99.5Y-83.0
X100.0Y-103.5
X100.0Y-108.5
X100.0Y-138.0
X100.0Y-140.0
X100.0Y-142.0
X100.0Y-144.0
X100.0Y-146.0
X101.0Y-92.5
X101.5Y-98.0
X102.0Y-79.5
X102.0Y-144.0
X102.0Y-146.0
X104.0Y-95.5
X104.0Y-100.5
X105.0Y-78.0
X105.0Y-85.5
X105.0Y-144.0
X105.0Y-146.0
X106.0Y-89.0
X106.0Y-104.0
X106.5Y-81.0
X106.5Y-83.0
X107.5Y-78.0
X107.5Y-95.0
X107.5Y-98.0
X107.5Y-104.0
X108.5Y-87.5
X109.0Y-104.0
X110.0Y-87.5
X110.0Y-89.0
X110.0Y-95.0
X110.0Y-100.5
X113.5Y-79.5
X113.5Y-101.0
X114.0Y-91.5
X114.0Y-94.5
X115.5Y-79.5
X115.5Y-101.0
X116.0Y-93.0
X129.0Y-146.5
T2
X66.8Y-82.5
X67.737Y-80.237
X67.737Y-84.763
X70.0Y-79.3
X70.0Y-85.7
X72.263Y-80.237
X72.263Y-84.763
X73.2Y-82.5
X126.8Y-82.5
X127.737Y-80.237
X127.737Y-84.763
X130.0Y-79.3
X130.0Y-85.7
X132.263Y-80.237
X132.263Y-84.763
X133.2Y-82.5
T3
X108.0Y-114.5
X108.0Y-116.0
X109.0Y-118.0
X109.5Y-116.0
X112.0Y-116.0
X114.0Y-116.0
T4
X82.46Y-83.0
X85.0Y-83.0
T5
X133.0Y-100.5
X133.0Y-103.5
X133.0Y-107.0
T6
X72.5Y-97.5
X72.5Y-100.04
X72.5Y-102.58
X75.04Y-97.5
X75.04Y-100.04
X75.04Y-102.58
T7
X119.5Y-97.5
X119.5Y-102.0
X126.0Y-97.5
X126.0Y-102.0
X119.5Y-88.5
X119.5Y-93.0
X126.0Y-88.5
X126.0Y-93.0
T8
X100.0Y-90.0
X129.5Y-103.5
X129.5Y-107.0
T9
X80.95Y-140.0
X88.57Y-140.0
X96.19Y-140.0
X103.81Y-140.0
X111.43Y-140.0
X119.05Y-140.0
T10
X130.0Y-142.5
X70.0Y-82.5
X70.0Y-142.5
X130.0Y-82.5
T0
M30
